<svg width="100%" height="100%" viewBox="0 0 1707 1707" version="1.1" xmlns="http://www.w3.org/2000/svg"
    xmlns:xlink="http://www.w3.org/1999/xlink" xml:space="preserve" xmlns:serif="http://www.serif.com/"
    style="fill-rule:evenodd;clip-rule:evenodd;stroke-linejoin:round;stroke-miterlimit:2;">
    <path id="Core"
        d="M994.227,974.287c-2.013,-26.541 11.955,-51.737 35.531,-64.092c72.054,-37.757 111.05,-87.33 169.367,-87.33c259.681,-0 366.575,289.928 366.575,586.998c0,297.071 -305.612,296.804 -305.612,296.804l-813.51,-0c0,-0 -305.612,0.267 -305.612,-296.804c0,-297.07 106.895,-586.998 366.576,-586.998c60.145,-0 99.739,52.729 176.141,91.035c24.166,12.058 38.627,37.544 36.584,64.473c-8.586,116.218 -30.611,406.518 -30.611,406.518c0,-0 -2.789,13.638 17.246,37.735c14.563,17.515 87.261,107.468 125.885,155.297c5.926,7.322 14.836,11.583 24.256,11.599c9.419,0.016 18.344,-4.214 24.295,-11.515c38.905,-47.808 112.224,-137.855 126.795,-155.381c20.035,-24.097 17.246,-37.735 17.246,-37.735c0,-0 -22.351,-294.597 -31.152,-410.604Zm-140.894,-974.287c227.635,0 412.445,184.81 412.445,412.445c0,227.634 -184.81,412.444 -412.445,412.444c-227.634,0 -412.444,-184.81 -412.444,-412.444c-0,-227.635 184.81,-412.445 412.444,-412.445Z" />
</svg>