<?xml version="1.0" encoding="UTF-8" standalone="no"?><!DOCTYPE svg PUBLIC "-//W3C//DTD SVG 1.1//EN" "http://www.w3.org/Graphics/SVG/1.1/DTD/svg11.dtd">
<svg width="100%" height="100%" viewBox="0 0 1707 1707" version="1.1" xmlns="http://www.w3.org/2000/svg" xmlns:xlink="http://www.w3.org/1999/xlink" xml:space="preserve" xmlns:serif="http://www.serif.com/" style="fill-rule:evenodd;clip-rule:evenodd;stroke-linejoin:round;stroke-miterlimit:2;">
<path id="Moderator" d="M907.134,1173.66l-380.657,-380.658l620.29,-722.14c-0,-0 15.593,-23.61 79.019,-29.448c46.131,-4.246 280.925,-28.288 405.55,-41.084c19.047,-1.941 37.953,4.807 51.468,18.368c13.514,13.561 20.196,32.491 18.19,51.531c-13.23,124.254 -38.028,358.018 -42.272,404.121c-5.838,63.427 -29.447,79.02 -29.447,79.02l-722.141,620.29Zm-571.74,-33.132l-88.135,-88.135c-83.879,-83.879 -83.879,-220.078 -0,-303.957l10.132,-10.132c22.368,-22.367 58.687,-22.367 81.055,0l635.241,635.241c22.367,22.368 22.367,58.687 -0,81.055l-10.132,10.132c-83.879,83.879 -220.078,83.879 -303.957,0l-88.135,-88.135l-281.212,281.213c-65.145,65.145 -170.925,65.145 -236.07,-0c-65.145,-65.145 -65.145,-170.925 0,-236.07l281.213,-281.212Z"/>
</svg>
