<?xml version="1.0" encoding="UTF-8" standalone="no"?><!DOCTYPE svg PUBLIC "-//W3C//DTD SVG 1.1//EN" "http://www.w3.org/Graphics/SVG/1.1/DTD/svg11.dtd">
<svg width="100%" height="100%" viewBox="0 0 1707 1707" version="1.1" xmlns="http://www.w3.org/2000/svg" xmlns:xlink="http://www.w3.org/1999/xlink" xml:space="preserve" xmlns:serif="http://www.serif.com/" style="fill-rule:evenodd;clip-rule:evenodd;stroke-linejoin:round;stroke-miterlimit:2;">
<path id="Userstyles" d="M1259.24,392.903c25.241,0.921 49.198,11.36 67.058,29.22c87.114,87.101 355.98,355.967 355.98,355.967c30.455,30.456 30.507,79.856 0.116,110.248l-495.596,495.596l-865.578,-865.578l495.595,-495.596c30.392,-30.392 79.793,-30.34 110.249,0.116c-0,-0 63.271,63.272 100.829,100.83c18.012,18.01 28.472,42.214 29.246,67.674c1.593,54.173 0.156,151.911 -25.18,225.89c74.257,-25.43 172.932,-26.3 227.281,-24.367Zm-687.972,994.663l-267.41,267.41c-69.025,69.024 -181.221,68.906 -250.39,-0.264c-69.17,-69.17 -69.288,-181.366 -0.264,-250.39l267.41,-267.41l-120.42,-120.42c-104.067,-104.067 -104.244,-272.867 -0.397,-376.714l47.04,-47.04l865.578,865.578l-47.039,47.04c-103.848,103.848 -272.648,103.67 -376.714,-0.396l-117.394,-117.394Z"/>
</svg>
