<svg clip-rule="evenodd" fill-rule="evenodd" stroke-linejoin="round" stroke-miterlimit="2" viewBox="0 0 24 24" xmlns="http://www.w3.org/2000/svg"><path d="m15.715 22.464c-.176.17-.409.273-.697.295-.265.021-.599-.035-.969-.156-.672-.219-1.506-.657-2.21-.954-.336-.142-.62-.275-.812-.248-.193.026-.431.231-.716.457-.598.476-1.283 1.122-1.871 1.514-.324.216-.631.36-.891.412-.284.056-.536.019-.752-.097-.215-.115-.386-.304-.496-.572-.101-.245-.151-.581-.15-.97 0-.707.159-1.635.224-2.397.031-.362.069-.674-.015-.848-.085-.175-.353-.339-.656-.539-.637-.422-1.464-.874-2.018-1.313-.306-.241-.538-.488-.667-.72-.141-.252-.184-.503-.141-.744s.171-.461.391-.649c.202-.172.506-.323.876-.443.673-.217 1.605-.353 2.349-.527.355-.083.663-.142.803-.277.14-.134.212-.439.31-.79.204-.737.379-1.662.624-2.325.135-.365.298-.662.479-.857.196-.212.422-.33.664-.364.242-.033.492.02.738.172.226.139.463.381.692.696.415.572.832 1.417 1.227 2.071.188.312.34.586.511.678s.484.066.848.05c.763-.033 1.698-.153 2.404-.124.389.015.722.079.963.19.262.122.445.3.551.52s.133.473.065.755c-.062.258-.219.558-.448.873-.416.571-1.091 1.229-1.591 1.807-.238.275-.452.504-.486.695-.035.192.086.481.213.822.268.716.671 1.568.862 2.248.105.375.147.711.116.975-.034.287-.147.515-.324.684z"/><path d="m14.207 3.921c-.017-.055-.067-.221-.119-.339-.166-.379-.409-.828-.533-1.19-.162-.474-.097-.863.1-1.074.196-.211.58-.303 1.063-.174.37.098.835.309 1.225.449.121.043.291.082.346.095.047-.033.189-.132.286-.218.309-.275.661-.645.967-.875.4-.3.79-.358 1.051-.236.262.122.468.458.495.957.021.383-.036.89-.048 1.304-.004.129.011.302.016.358.045.035.184.139.295.204.358.209.818.43 1.131.65.41.288.585.641.55.927s-.291.586-.758.766c-.357.138-.857.241-1.254.357-.124.036-.284.104-.336.127-.019.053-.075.217-.103.344-.088.404-.156.91-.268 1.276-.148.478-.429.754-.712.809s-.648-.096-.963-.484c-.242-.297-.494-.741-.727-1.083-.073-.106-.187-.237-.224-.28-.057-.001-.231-.004-.359.008-.412.041-.914.134-1.297.14-.5.007-.85-.175-.99-.427-.139-.252-.108-.646.163-1.066.208-.321.552-.698.805-1.026.079-.102.169-.251.198-.299z"/></svg>