<svg clip-rule="evenodd" fill-rule="evenodd" stroke-linejoin="round" stroke-miterlimit="2" viewBox="0 0 24 24" xmlns="http://www.w3.org/2000/svg"><g transform="matrix(.0784588 0 0 .0784588 -27.2294 4.07304)"><path d="m389.959 112.602c-.002.001-.002.001-.003.001-17.099-10.014-27.716-16.231-36.764-21.529-1.249-.733-2.017-2.074-2.02-3.523 0-1.449.768-2.79 2.02-3.523l100.213-58.724c.633-.372 1.418-.375 2.058-.01.637.366 1.032 1.046 1.032 1.782v43.526c0 2.46-1.305 4.736-3.432 5.976-3.559 2.079-13.437 7.774-18.87 10.925 3.448 2.022 8.45 4.956 9.834 5.767 4.11 2.411 15.047 8.732 20.155 11.682.555.322.9.917.9 1.561.003.644-.339 1.239-.894 1.564-8.503 4.958-34.575 20.159-40.241 23.464-.677.393-1.512.388-2.18-.014-4.258-2.556-19.744-11.857-23.537-14.08-2.829-1.655-5.961-3.491-8.271-4.845z"/><path d="m521.879 54.828v53.113c0 1.094.587 2.104 1.534 2.648.951.543 2.118.537 3.062-.016 4.01-2.353 21.421-12.566 39.247-23.022-5.006-2.925-15.625-9.128-18.785-10.973-2.124-1.24-3.429-3.516-3.429-5.976v-43.526c0-.736.392-1.416 1.032-1.782.64-.365 1.425-.362 2.059.01 9.236 5.413 37.548 22.004 62.623 36.697 0 0 .01.006.028.016.287.168 2.657 1.552 2.657 1.552l-.004.003c7.476 4.381 28.585 16.751 34.908 20.456 1.249.733 2.017 2.074 2.017 3.523s-.768 2.79-2.017 3.523c-28.296 16.57-146.8 85.97-146.8 85.97l-66.51-38.512s40.096-23.181 40.852-23.618c3.906-2.253 3.771-5.879 3.771-6.973v-52.189c0-.824.521-1.736 1.136-2.018.751-.343 1.581-.457 2.312-.077 2.291 1.189 9.82 4.689 17.76 8.339 6.382-3.076 17.768-8.572 19.099-9.263.731-.38 1.609-.351 2.312.078.706.428 1.136 1.193 1.136 2.017z"/></g></svg>