<svg clip-rule="evenodd" fill-rule="evenodd" stroke-linejoin="round" stroke-miterlimit="2" viewBox="0 0 24 24" xmlns="http://www.w3.org/2000/svg"><g fill="#080808" fill-rule="nonzero"><path d="m2 7v83h45v-16h7v-19h-7v-13h7v-19h-7v-16zm17 19h18v13h-18zm0 32h18v13h-18z" transform="matrix(.151298 0 0 .151298 .303 4.6621)"/><g transform="matrix(.151298 0 0 .151298 -28.198 4.6621)"><path d="m261 23v16h-14v19h14v16h17v-16h14v-19h-14v-16z"/><path d="m310 23v16h-14v19h14v16h17v-16h14v-19h-14v-16z"/></g></g></svg>