<svg clip-rule="evenodd" fill-rule="evenodd" stroke-linejoin="round" stroke-miterlimit="2" viewBox="0 0 24 24" xmlns="http://www.w3.org/2000/svg"><g fill-rule="nonzero" transform="matrix(.00433961 .00118059 .00118059 -.00433961 -1.68208 17.0124)"><path d="m5258.38 1571.66c-52.27 66.67-127.66 113.08-226.16 139.21 87.78 22.77 154.63 61.65 200.53 116.6 45.89 54.94 68.85 123.64 68.85 206.06 0 121.28-43.72 218.63-131.17 292-87.45 73.38-204.22 110.07-350.3 110.07-48.93 0-105.04-5.37-168.37-16.08-63.32-10.73-135.54-26.81-216.61-48.25v-186.96c69.68 26.79 136.35 46.9 200.03 60.31 63.65 13.4 125.3 20.1 184.95 20.1 89.79 0 158.97-20.6 207.57-61.82 48.58-41.21 72.88-100.35 72.88-177.41 0-73.05-26.15-130.01-78.41-170.88-52.27-40.88-124.99-61.31-218.13-61.31h-154.79v-166.86h154.79c101.86 0 182.6-25.63 242.25-76.89 59.64-51.27 89.46-120.47 89.46-207.57 0-94.49-29.82-166.87-89.46-217.12-59.65-50.26-145.09-75.39-256.32-75.39-65.67 0-131.67 8.7-198.02 26.13-66.33 17.42-133.68 43.89-202.04 79.42v-202.04c69.02-24.128 139.38-42.57 211.1-55.289 71.69-12.722 142.05-19.101 211.08-19.101 164.17 0 292.66 39.359 385.48 118.109 92.81 78.741 139.22 187.121 139.22 325.171 0 99.85-26.14 183.1-78.41 249.79"/><path d="m4261.43 2307.22-670.68-597.74v-117.26l670.68-597.751v273.131l-430.44 383.25 430.44 383.24z"/><path d="m2781 2296.94v-268.71l423.45-377.03-423.45-377.02v-268.7l659.8 588.05v115.35z"/><path d="m2175.02 2614.36c-151.43 49.59-302.55 74.39-453.34 74.39-149.42 0-299.87-24.8-451.31-74.39-151.44-49.6-306.233-124.98-464.397-226.16v-160.83c153.465 89.12 306.247 155.63 458.357 199.53 152.13 43.89 304.57 65.84 457.35 65.84 152.13 0 304.24-21.95 456.35-65.84 152.13-43.9 305.91-110.41 461.38-199.53v160.83c-158.16 101.18-312.94 176.56-464.39 226.16"/><path d="m2178.03 884.23c-152.11-43.89-304.22-65.839-456.35-65.839-152.78 0-305.22 21.949-457.35 65.839-152.11 43.891-304.892 110.411-458.357 199.53v-160.83c158.164-101.18 312.957-176.571 464.397-226.16 151.44-49.59 301.89-74.391 451.31-74.391 150.79 0 301.91 24.801 453.34 74.391 151.45 49.589 306.23 124.98 464.39 226.16v160.83c-155.47-89.119-309.25-155.639-461.38-199.53"/><path d="m2312.03 3381.56h-113.7l-579.61-561.43h264.84l371.62 360.32 371.63-360.32h264.85z"/><path d="m1652.59 339.512v183.508h-223.39v-183.508l174.64-339.512h136.51z"/><path d="m917.598 1924.08v-270.38h223.392v270.38z"/><path d="m659.801 2300.92-659.801-588.06v-115.36l659.801-588.06v268.71l-423.457 377.03 423.457 377.03z"/></g></svg>