<svg clip-rule="evenodd" fill-rule="evenodd" stroke-linejoin="round" stroke-miterlimit="2" viewBox="0 0 24 24" xmlns="http://www.w3.org/2000/svg"><path d="m373.855 180.37h16.987c38.721 0 70.158 31.436 70.158 70.157v140.315c0 38.721-31.437 70.158-70.158 70.158h-301.684c-38.721 0-70.158-31.437-70.158-70.158v-140.315c0-38.721 31.437-70.157 70.158-70.157h16.987v-96.317c0-37.974 30.829-68.803 68.802-68.803h130.106c37.973 0 68.802 30.829 68.802 68.803zm-210.152 14.878c15.278 26.751 43.739 44.752 76.297 44.752s61.019-18.001 76.297-44.752c2.688-4.705 4.967-9.681 6.789-14.878 3.306-9.428 5.107-19.582 5.107-30.16 0-5.291-.451-10.476-1.315-15.517 0 0-64.426.366-84.924.366 0 0 .227 19.226.227 32.819 46.613 0 48.726.055 48.726.055-1.488 4.428-3.519 8.601-6.011 12.437-3.794 5.837-8.655 10.894-14.301 14.878-8.688 6.133-19.232 9.727-30.595 9.727s-21.907-3.594-30.595-9.727c-5.646-3.984-10.507-9.041-14.301-14.878-5.621-8.652-8.895-19.02-8.895-30.16 0-30.226 24.103-54.765 53.791-54.765 14.324 0 27.348 5.712 36.992 15.02l24.547-24.548c-15.895-15.774-37.611-25.497-61.539-25.497-48.675 0-88.193 40.234-88.193 89.79 0 10.578 1.801 20.732 5.107 30.16 1.822 5.197 4.101 10.173 6.789 14.878zm167.969 119.072c0-2.312-1.876-4.188-4.188-4.188h-32.624c-2.311 0-4.188 1.876-4.188 4.188v32.624c0 2.311 1.877 4.188 4.188 4.188h32.624c2.312 0 4.188-1.877 4.188-4.188zm-210.989 0c0-2.312-1.877-4.188-4.188-4.188h-32.624c-2.312 0-4.188 1.876-4.188 4.188v32.624c0 2.311 1.876 4.188 4.188 4.188h32.624c2.311 0 4.188-1.877 4.188-4.188zm59.198-33.124-29.868-24.561v20.373c0 2.311 1.876 4.188 4.188 4.188zm220.436-36.812c0-2.312-1.876-4.188-4.188-4.188h-32.624c-2.311 0-4.188 1.876-4.188 4.188v32.624c0 2.311 1.877 4.188 4.188 4.188h32.624c2.312 0 4.188-1.877 4.188-4.188zm-209.304 69.936c0-2.312-1.877-4.188-4.189-4.188h-32.623c-2.312 0-4.188 1.876-4.188 4.188v32.624c0 2.311 1.876 4.188 4.188 4.188h32.623c2.312 0 4.189-1.877 4.189-4.188zm-70.33-69.936c0-2.312-1.877-4.188-4.188-4.188h-32.624c-2.312 0-4.188 1.876-4.188 4.188v32.624c0 2.311 1.876 4.188 4.188 4.188h32.624c2.311 0 4.188-1.877 4.188-4.188zm279.634 69.936c0-2.312-1.876-4.188-4.188-4.188h-32.624c-2.311 0-4.188 1.876-4.188 4.188v32.624c0 2.311 1.877 4.188 4.188 4.188h32.624c2.312 0 4.188-1.877 4.188-4.188zm-68.645-57.676c-9.27 7.619-19.711 16.112-30.137 24.552h25.949c2.312 0 4.188-1.877 4.188-4.188zm-70.39 56.964c-12.675 10.161-21.282 17.024-21.282 17.024l-19.658-16.165v32.477c0 2.311 1.877 4.188 4.188 4.188h32.624c2.312 0 4.188-1.877 4.188-4.188v-32.624c0-.243-.02-.481-.06-.712z" transform="matrix(.0519703 0 0 .0519703 -.472862 -.375418)"/></svg>