<?xml version="1.0" encoding="UTF-8" standalone="no"?><!DOCTYPE svg PUBLIC "-//W3C//DTD SVG 1.1//EN" "http://www.w3.org/Graphics/SVG/1.1/DTD/svg11.dtd"><svg width="100%" height="100%" viewBox="0 0 24 24" version="1.1" xmlns="http://www.w3.org/2000/svg" xmlns:xlink="http://www.w3.org/1999/xlink" xml:space="preserve" xmlns:serif="http://www.serif.com/" style="fill-rule:evenodd;clip-rule:evenodd;stroke-linejoin:round;stroke-miterlimit:2;"><path id="GitUI" d="M6.345,18.698c-0.042,-0.054 -0.132,-0.197 -0.206,-0.314c-0.117,-0.198 -0.141,-0.219 -0.225,-0.219c-0.078,0 -0.132,0.039 -0.336,0.255c-0.347,0.368 -0.407,0.353 -0.593,-0.15c-0.108,-0.297 -0.12,-0.315 -0.207,-0.333c-0.08,-0.015 -0.134,0.012 -0.374,0.18c-0.153,0.108 -0.297,0.198 -0.321,0.198c-0.143,-0 -0.182,-0.084 -0.248,-0.533c-0.033,-0.222 -0.045,-0.252 -0.117,-0.291c-0.075,-0.039 -0.102,-0.03 -0.375,0.093c-0.161,0.072 -0.329,0.132 -0.377,0.132c-0.141,-0 -0.159,-0.054 -0.153,-0.462c0.006,-0.359 0.003,-0.368 -0.066,-0.416c-0.066,-0.042 -0.093,-0.042 -0.353,0.024c-0.333,0.087 -0.426,0.093 -0.489,0.027c-0.063,-0.063 -0.06,-0.153 0.015,-0.485c0.054,-0.237 0.06,-0.291 0.027,-0.351c-0.039,-0.072 -0.051,-0.075 -0.431,-0.081c-0.387,-0.009 -0.39,-0.009 -0.434,-0.09c-0.042,-0.075 -0.039,-0.096 0.095,-0.389c0.078,-0.168 0.141,-0.33 0.141,-0.357c0,-0.108 -0.075,-0.144 -0.416,-0.2c-0.504,-0.087 -0.528,-0.15 -0.225,-0.57c0.168,-0.233 0.195,-0.287 0.177,-0.359c-0.015,-0.078 -0.048,-0.099 -0.324,-0.201c-0.347,-0.129 -0.41,-0.171 -0.41,-0.288c-0,-0.062 0.054,-0.131 0.254,-0.32c0.348,-0.327 0.348,-0.36 -0.006,-0.575c-0.335,-0.201 -0.368,-0.231 -0.368,-0.33c-0,-0.099 0.066,-0.159 0.38,-0.347c0.225,-0.135 0.249,-0.156 0.249,-0.243c0,-0.081 -0.036,-0.126 -0.24,-0.309c-0.248,-0.224 -0.287,-0.287 -0.257,-0.404c0.015,-0.057 0.078,-0.093 0.35,-0.198c0.267,-0.102 0.339,-0.144 0.36,-0.203c0.036,-0.093 0.036,-0.096 -0.18,-0.399c-0.288,-0.401 -0.255,-0.467 0.273,-0.554c0.305,-0.048 0.323,-0.054 0.356,-0.135c0.033,-0.078 0.021,-0.12 -0.105,-0.401c-0.209,-0.465 -0.176,-0.51 0.333,-0.498c0.485,0.015 0.512,-0.015 0.398,-0.443c-0.069,-0.264 -0.075,-0.429 -0.018,-0.476c0.063,-0.054 0.162,-0.048 0.489,0.026c0.299,0.069 0.308,0.072 0.368,0.015c0.057,-0.05 0.063,-0.086 0.057,-0.41c-0.009,-0.518 0.036,-0.548 0.497,-0.339c0.282,0.129 0.321,0.141 0.399,0.108c0.081,-0.033 0.087,-0.051 0.135,-0.356c0.087,-0.536 0.156,-0.566 0.575,-0.261c0.294,0.213 0.279,0.207 0.383,0.168c0.057,-0.021 0.096,-0.093 0.186,-0.333c0.129,-0.341 0.162,-0.389 0.285,-0.389c0.069,-0 0.129,0.048 0.317,0.255c0.309,0.341 0.348,0.341 0.549,0.024c0.218,-0.351 0.263,-0.399 0.362,-0.399c0.096,0 0.147,0.057 0.363,0.411c0.116,0.191 0.14,0.218 0.221,0.218c0.075,0 0.129,-0.045 0.324,-0.254c0.347,-0.378 0.425,-0.357 0.605,0.149c0.102,0.285 0.117,0.309 0.201,0.327c0.075,0.015 0.129,-0.012 0.359,-0.177c0.429,-0.305 0.495,-0.275 0.578,0.252c0.048,0.311 0.087,0.389 0.195,0.392c0.024,0 0.186,-0.063 0.354,-0.141c0.293,-0.134 0.314,-0.137 0.389,-0.095c0.081,0.045 0.081,0.048 0.09,0.419l0.009,0.378l-0.174,0.113c-0.096,0.063 -0.284,0.225 -0.422,0.36l-0.246,0.249l-0.219,-0.144c-0.437,-0.288 -0.949,-0.513 -1.474,-0.647l-0.269,-0.069l-0.075,0.066c-0.042,0.036 -0.21,0.194 -0.375,0.353c-0.455,0.435 -0.518,0.429 -1.003,-0.087l-0.315,-0.335l-0.284,0.072c-0.689,0.17 -1.342,0.503 -1.894,0.958c-0.242,0.201 -0.824,0.836 -0.991,1.082c-0.18,0.26 -0.171,0.356 0.063,0.791c0.242,0.443 0.287,0.578 0.242,0.713c-0.042,0.129 -0.096,0.165 -0.593,0.386l-0.407,0.18l-0.021,0.135c-0.033,0.221 -0.024,0.686 0.021,1c0.107,0.767 0.128,0.824 0.506,1.57c0.228,0.456 0.425,0.755 0.656,1.004l0.156,0.165l0.455,-0.096c0.438,-0.093 0.456,-0.093 0.56,-0.045c0.057,0.03 0.126,0.09 0.147,0.135c0.024,0.045 0.087,0.293 0.141,0.548l0.099,0.467l0.243,0.093c0.979,0.381 1.992,0.444 2.998,0.186c0.294,-0.075 0.707,-0.231 0.752,-0.285c0.018,-0.021 0.069,-0.224 0.117,-0.452c0.105,-0.503 0.141,-0.593 0.255,-0.653c0.117,-0.06 0.213,-0.057 0.563,0.018c0.458,0.096 0.464,0.099 0.629,0.323c0.255,0.342 0.62,0.656 1.07,0.917c0.075,0.045 0.033,0.159 -0.066,0.183c-0.045,0.012 -0.21,-0.012 -0.396,-0.054c-0.443,-0.108 -0.434,-0.114 -0.452,0.398c-0.015,0.387 -0.018,0.402 -0.087,0.435c-0.078,0.039 -0.144,0.021 -0.542,-0.162c-0.18,-0.084 -0.201,-0.087 -0.276,-0.048c-0.048,0.024 -0.084,0.054 -0.084,0.066c0,0.012 -0.027,0.168 -0.057,0.347c-0.077,0.456 -0.137,0.495 -0.44,0.285c-0.404,-0.279 -0.392,-0.273 -0.488,-0.252c-0.081,0.018 -0.099,0.045 -0.204,0.336c-0.177,0.491 -0.264,0.509 -0.605,0.129c-0.186,-0.207 -0.231,-0.24 -0.315,-0.24c-0.09,0 -0.111,0.021 -0.29,0.309c-0.171,0.272 -0.204,0.305 -0.288,0.314c-0.075,0.009 -0.105,-0.009 -0.165,-0.09Zm3.182,-2.046c0.296,-0.153 0.288,-0.575 -0.018,-0.719c-0.255,-0.12 -0.551,0.072 -0.551,0.36c-0,0.296 0.308,0.494 0.569,0.359Zm-7.502,-5.485c0.255,-0.12 0.297,-0.456 0.081,-0.653c-0.165,-0.153 -0.425,-0.126 -0.566,0.057c-0.15,0.197 -0.108,0.434 0.105,0.575c0.12,0.081 0.239,0.087 0.38,0.021Zm4.614,-3.505c0.147,-0.069 0.231,-0.204 0.231,-0.36c-0,-0.15 -0.063,-0.261 -0.198,-0.341c-0.339,-0.207 -0.74,0.2 -0.539,0.542c0.053,0.09 0.251,0.206 0.347,0.206c0.033,0 0.102,-0.02 0.159,-0.047Zm-2.825,8.948c0.186,-0.12 0.236,-0.299 0.144,-0.491c-0.072,-0.15 -0.195,-0.231 -0.348,-0.231c-0.392,0 -0.548,0.48 -0.234,0.716c0.108,0.078 0.324,0.084 0.438,0.006Zm2.337,-1.504c-1.391,-0.096 -2.262,-0.833 -2.514,-2.118c-0.216,-1.114 0.087,-2.187 0.815,-2.885c0.413,-0.392 0.881,-0.632 1.42,-0.719c0.282,-0.045 1.034,-0.036 1.453,0.018c0.323,0.042 1.057,0.18 1.081,0.204c0.006,0.003 0.024,0.135 0.042,0.29c0.036,0.315 0.108,0.719 0.15,0.872c0.033,0.114 0.006,0.147 -0.135,0.147c-0.128,0 -0.146,-0.021 -0.248,-0.264c-0.213,-0.506 -0.525,-0.743 -1.127,-0.847c-0.323,-0.054 -0.854,-0.021 -1.12,0.072c-0.647,0.227 -1.034,0.733 -1.193,1.566c-0.059,0.333 -0.045,1.133 0.033,1.48c0.204,0.917 0.761,1.546 1.528,1.723c0.243,0.057 0.752,0.063 0.992,0.015l0.162,-0.033l-0,-0.62c-0.003,-0.342 -0.015,-0.68 -0.027,-0.755c-0.036,-0.18 -0.129,-0.255 -0.408,-0.315c-0.239,-0.054 -0.284,-0.093 -0.284,-0.245l-0,-0.084l1.168,-0c1.082,-0 1.171,0.003 1.186,0.051c0.009,0.03 -0.003,0.09 -0.024,0.134c-0.032,0.066 -0.074,0.093 -0.233,0.132c-0.132,0.036 -0.216,0.078 -0.261,0.132c-0.069,0.078 -0.069,0.09 -0.069,0.893c0,0.449 -0.009,0.845 -0.018,0.878c-0.024,0.087 -0.108,0.12 -0.422,0.173c-0.605,0.102 -1.372,0.144 -1.947,0.105Zm7.265,-0.003c-0.384,-0.051 -0.603,-0.275 -0.681,-0.698c-0.02,-0.108 -0.032,-0.65 -0.032,-1.414l-0,-1.237l-0.51,-0l0,-0.117c0,-0.177 0.024,-0.213 0.132,-0.213c0.288,0 0.569,-0.206 0.734,-0.536c0.051,-0.099 0.144,-0.234 0.207,-0.299c0.105,-0.111 0.132,-0.123 0.254,-0.123l0.141,-0l0,0.898l0.989,0l-0,0.129c-0,0.069 -0.021,0.159 -0.048,0.195c-0.042,0.063 -0.063,0.066 -0.494,0.066l-0.447,-0l0,1.276c0,1.366 0.012,1.507 0.141,1.591c0.111,0.072 0.389,0.036 0.593,-0.078c0.09,-0.051 0.192,-0.093 0.222,-0.093c0.051,0 0.153,0.099 0.153,0.15c-0,0.03 -0.399,0.321 -0.525,0.383c-0.221,0.108 -0.557,0.159 -0.829,0.12Zm4.35,0.003c-1.088,-0.075 -1.717,-0.536 -1.894,-1.39c-0.018,-0.087 -0.039,-0.902 -0.051,-1.971l-0.018,-1.825l-0.084,-0.071c-0.081,-0.069 -0.188,-0.105 -0.419,-0.147c-0.123,-0.021 -0.189,-0.12 -0.159,-0.24c0.015,-0.06 0.027,-0.06 0.584,-0.033c0.336,0.015 0.833,0.015 1.202,0l0.629,-0.027l-0,0.105c-0,0.057 -0.012,0.12 -0.024,0.138c-0.012,0.018 -0.129,0.057 -0.258,0.087c-0.18,0.039 -0.26,0.072 -0.323,0.135l-0.084,0.083l-0,1.555c-0,1.645 0.015,1.861 0.147,2.238c0.089,0.252 0.191,0.414 0.35,0.554c0.249,0.219 0.662,0.324 1.136,0.285c0.647,-0.048 0.979,-0.24 1.186,-0.683c0.18,-0.384 0.183,-0.446 0.198,-2.265c0.012,-1.651 0.012,-1.666 -0.048,-1.744c-0.063,-0.077 -0.24,-0.149 -0.459,-0.188c-0.122,-0.018 -0.182,-0.093 -0.167,-0.204l0.009,-0.066l1.815,0l-0.009,0.12l-0.009,0.117l-0.21,0.048c-0.113,0.027 -0.242,0.066 -0.278,0.087c-0.153,0.08 -0.156,0.116 -0.156,1.872c-0,1.507 -0.006,1.657 -0.06,1.941c-0.078,0.408 -0.216,0.692 -0.452,0.938c-0.429,0.449 -1.082,0.62 -2.094,0.551Zm-8.155,-0.123c-0.018,-0.119 0.003,-0.137 0.227,-0.2c0.354,-0.099 0.333,-0.006 0.342,-1.3c0.015,-1.747 0.027,-1.702 -0.503,-1.846c-0.06,-0.015 -0.078,-0.042 -0.084,-0.126l-0.009,-0.108l0.374,-0.018c0.207,-0.012 0.546,-0.048 0.755,-0.083c0.492,-0.084 0.48,-0.093 0.435,0.347c-0.048,0.476 -0.042,2.855 0.006,2.951c0.042,0.084 0.191,0.165 0.356,0.192c0.132,0.021 0.21,0.093 0.198,0.179c-0.009,0.063 -0.015,0.063 -0.698,0.054c-0.378,-0.003 -0.848,0.003 -1.04,0.015l-0.347,0.024l-0.012,-0.081Zm12.115,-0.053l0.009,-0.132l0.219,-0.051c0.135,-0.03 0.245,-0.075 0.29,-0.117l0.075,-0.069l0,-4.632l-0.066,-0.074c-0.048,-0.054 -0.134,-0.093 -0.293,-0.129l-0.225,-0.054l-0.018,-0.27l0.572,0.027c0.315,0.012 0.824,0.012 1.139,0l0.572,-0.027l-0.018,0.27l-0.252,0.063c-0.152,0.039 -0.269,0.087 -0.293,0.12c-0.033,0.041 -0.039,0.485 -0.039,2.372c-0,1.426 0.012,2.337 0.03,2.37c0.033,0.066 0.162,0.123 0.383,0.165l0.171,0.036l0.009,0.132l0.009,0.134l-0.572,-0.027c-0.315,-0.012 -0.824,-0.012 -1.139,0l-0.572,0.027l0.009,-0.134Zm-11.345,-4.401c-0.222,-0.102 -0.345,-0.306 -0.345,-0.564c0.003,-0.641 0.848,-0.841 1.142,-0.272c0.063,0.126 0.075,0.389 0.024,0.524c-0.111,0.297 -0.519,0.452 -0.821,0.312Z"/></svg>