<svg clip-rule="evenodd" fill-rule="evenodd" stroke-linejoin="round" stroke-miterlimit="2" viewBox="0 0 24 24" xmlns="http://www.w3.org/2000/svg"><g fill-rule="nonzero" transform="matrix(.0286163 0 0 .0286163 -1.72296 3.53143)"><path d="m290.8 509.8c-1.4-1.8-4.4-6.6-6.9-10.5-3.9-6.6-4.7-7.3-7.5-7.3-2.6 0-4.4 1.3-11.2 8.5-11.6 12.3-13.6 11.8-19.8-5-3.6-9.9-4-10.5-6.9-11.1-2.7-.5-4.5.4-12.5 6-5.1 3.6-9.9 6.6-10.7 6.6-4.8 0-6.1-2.8-8.3-17.8-1.1-7.4-1.5-8.4-3.9-9.7-2.5-1.3-3.4-1-12.5 3.1-5.4 2.4-11 4.4-12.6 4.4-4.7 0-5.3-1.8-5.1-15.4.2-12 .1-12.3-2.2-13.9-2.2-1.4-3.1-1.4-11.8.8-11.1 2.9-14.2 3.1-16.3.9-2.1-2.1-2-5.1.5-16.2 1.8-7.9 2-9.7.9-11.7-1.3-2.4-1.7-2.5-14.4-2.7-12.9-.3-13-.3-14.5-3-1.4-2.5-1.3-3.2 3.2-13 2.6-5.6 4.7-11 4.7-11.9 0-3.6-2.5-4.8-13.9-6.7-16.8-2.9-17.6-5-7.5-19 5.6-7.8 6.5-9.6 5.9-12-.5-2.6-1.6-3.3-10.8-6.7-11.6-4.3-13.7-5.7-13.7-9.6 0-2.1 1.8-4.4 8.5-10.7 11.6-10.9 11.6-12-.2-19.2-11.2-6.7-12.3-7.7-12.3-11s2.2-5.3 12.7-11.6c7.5-4.5 8.3-5.2 8.3-8.1 0-2.7-1.2-4.2-8-10.3-8.3-7.5-9.6-9.6-8.6-13.5.5-1.9 2.6-3.1 11.7-6.6 8.9-3.4 11.3-4.8 12-6.8 1.2-3.1 1.2-3.2-6-13.3-9.6-13.4-8.5-15.6 9.1-18.5 10.2-1.6 10.8-1.8 11.9-4.5 1.1-2.6.7-4-3.5-13.4-7-15.5-5.9-17 11.1-16.6 16.2.5 17.1-.5 13.3-14.8-2.3-8.8-2.5-14.3-.6-15.9 2.1-1.8 5.4-1.6 16.3.9 10 2.3 10.3 2.4 12.3.5 1.9-1.7 2.1-2.9 1.9-13.7-.3-17.3 1.2-18.3 16.6-11.3 9.4 4.3 10.7 4.7 13.3 3.6 2.7-1.1 2.9-1.7 4.5-11.9 2.9-17.9 5.2-18.9 19.2-8.7 9.8 7.1 9.3 6.9 12.8 5.6 1.9-.7 3.2-3.1 6.2-11.1 4.3-11.4 5.4-13 9.5-13 2.3 0 4.3 1.6 10.6 8.5 10.3 11.4 11.6 11.4 18.3.8 7.3-11.7 8.8-13.3 12.1-13.3 3.2 0 4.9 1.9 12.1 13.7 3.9 6.4 4.7 7.3 7.4 7.3 2.5 0 4.3-1.5 10.8-8.5 11.6-12.6 14.2-11.9 20.2 5 3.4 9.5 3.9 10.3 6.7 10.9 2.5.5 4.3-.4 12-5.9 14.3-10.2 16.5-9.2 19.3 8.4 1.6 10.4 2.9 13 6.5 13.1.8 0 6.2-2.1 11.8-4.7 9.8-4.5 10.5-4.6 13-3.2 2.7 1.5 2.7 1.6 3 14l.3 12.6-5.8 3.8c-3.2 2.1-9.5 7.5-14.1 12l-8.2 8.3-7.3-4.8c-14.6-9.6-31.7-17.1-49.2-21.6l-9-2.3-2.5 2.2c-1.4 1.2-7 6.5-12.5 11.8-15.2 14.5-17.3 14.3-33.5-2.9l-10.5-11.2-9.5 2.4c-23 5.7-44.8 16.8-63.2 32-8.1 6.7-27.5 27.9-33.1 36.1-6 8.7-5.7 11.9 2.1 26.4 8.1 14.8 9.6 19.3 8.1 23.8-1.4 4.3-3.2 5.5-19.8 12.9l-13.6 6-.7 4.5c-1.1 7.4-.8 22.9.7 33.4 3.6 25.6 4.3 27.5 16.9 52.4 7.6 15.2 14.2 25.2 21.9 33.5l5.2 5.5 15.2-3.2c14.6-3.1 15.2-3.1 18.7-1.5 1.9 1 4.2 3 4.9 4.5.8 1.5 2.9 9.8 4.7 18.3l3.3 15.6 8.1 3.1c32.7 12.7 66.5 14.8 100.1 6.2 9.8-2.5 23.6-7.7 25.1-9.5.6-.7 2.3-7.5 3.9-15.1 3.5-16.8 4.7-19.8 8.5-21.8 3.9-2 7.1-1.9 18.8.6 15.3 3.2 15.5 3.3 21 10.8 8.5 11.4 20.7 21.9 35.7 30.6 2.5 1.5 1.1 5.3-2.2 6.1-1.5.4-7-.4-13.2-1.8-14.8-3.6-14.5-3.8-15.1 13.3-.5 12.9-.6 13.4-2.9 14.5-2.6 1.3-4.8.7-18.1-5.4-6-2.8-6.7-2.9-9.2-1.6-1.6.8-2.8 1.8-2.8 2.2s-.9 5.6-1.9 11.6c-2.6 15.2-4.6 16.5-14.7 9.5-13.5-9.3-13.1-9.1-16.3-8.4-2.7.6-3.3 1.5-6.8 11.2-5.9 16.4-8.8 17-20.2 4.3-6.2-6.9-7.7-8-10.5-8-3 0-3.7.7-9.7 10.3-5.7 9.1-6.8 10.2-9.6 10.5-2.5.3-3.5-.3-5.5-3zm106.2-68.3c9.9-5.1 9.6-19.2-.6-24-8.5-4-18.4 2.4-18.4 12 0 9.9 10.3 16.5 19 12zm-190.7-1.4c6.2-4 7.9-10 4.8-16.4-2.4-5-6.5-7.7-11.6-7.7-13.1 0-18.3 16-7.8 23.9 3.6 2.6 10.8 2.8 14.6.2zm-59.7-181.7c8.5-4 9.9-15.2 2.7-21.8-5.5-5.1-14.2-4.2-18.9 1.9-5 6.6-3.6 14.5 3.5 19.2 4 2.7 8 2.9 12.7.7zm154-117c4.9-2.3 7.7-6.8 7.7-12 0-5-2.1-8.7-6.6-11.4-11.3-6.9-24.7 6.7-18 18.1 1.8 3 8.4 6.9 11.6 6.9 1.1 0 3.4-.7 5.3-1.6z"/><path d="m284.3 389.9c-46.4-3.2-75.5-27.8-83.9-70.7-7.2-37.2 2.9-73 27.2-96.3 13.8-13.1 29.4-21.1 47.4-24 9.4-1.5 34.5-1.2 48.5.6 10.8 1.4 35.3 6 36.1 6.8.2.1.8 4.5 1.4 9.7 1.2 10.5 3.6 24 5 29.1 1.1 3.8.2 4.9-4.5 4.9-4.3 0-4.9-.7-8.3-8.8-7.1-16.9-17.5-24.8-37.6-28.3-10.8-1.8-28.5-.7-37.4 2.4-21.6 7.6-34.5 24.5-39.8 52.3-2 11.1-1.5 37.8 1.1 49.4 6.8 30.6 25.4 51.6 51 57.5 8.1 1.9 25.1 2.1 33.1.5l5.4-1.1v-20.7c-.1-11.4-.5-22.7-.9-25.2-1.2-6-4.3-8.5-13.6-10.5-8-1.8-9.5-3.1-9.5-8.2v-2.8h39c36.1 0 39.1.1 39.6 1.7.3 1-.1 3-.8 4.5-1.1 2.2-2.5 3.1-7.8 4.4-4.4 1.2-7.2 2.6-8.7 4.4-2.3 2.6-2.3 3-2.3 29.8 0 15-.3 28.2-.6 29.3-.8 2.9-3.6 4-14.1 5.8-20.2 3.4-45.8 4.8-65 3.5z"/><path d="m526.8 389.8c-12.8-1.7-20.1-9.2-22.7-23.3-.7-3.6-1.1-21.7-1.1-47.2v-41.3h-17v-3.9c0-5.9.8-7.1 4.4-7.1 9.6 0 19-6.9 24.5-17.9 1.7-3.3 4.8-7.8 6.9-10 3.5-3.7 4.4-4.1 8.5-4.1h4.7v30h33v4.3c0 2.3-.7 5.3-1.6 6.5-1.4 2.1-2.1 2.2-16.5 2.2h-14.9v42.6c0 45.6.4 50.3 4.7 53.1 3.7 2.4 13 1.2 19.8-2.6 3-1.7 6.4-3.1 7.4-3.1 1.7 0 5.1 3.3 5.1 5 0 1-13.3 10.7-17.5 12.8-7.4 3.6-18.6 5.3-27.7 4z"/><path d="m672 389.9c-36.3-2.5-57.3-17.9-63.2-46.4-.6-2.9-1.3-30.1-1.7-65.8l-.6-60.9-2.8-2.4c-2.7-2.3-6.3-3.5-14-4.9-4.1-.7-6.3-4-5.3-8 .5-2 .9-2 19.5-1.1 11.2.5 27.8.5 40.1 0l21-.9v3.5c0 1.9-.4 4-.8 4.6s-4.3 1.9-8.6 2.9c-6 1.3-8.7 2.4-10.8 4.5l-2.8 2.8v51.9c0 54.9.5 62.1 4.9 74.7 3 8.4 6.4 13.8 11.7 18.5 8.3 7.3 22.1 10.8 37.9 9.5 21.6-1.6 32.7-8 39.6-22.8 6-12.8 6.1-14.9 6.6-75.6.4-55.1.4-55.6-1.6-58.2-2.1-2.6-8-5-15.3-6.3-4.1-.6-6.1-3.1-5.6-6.8l.3-2.2h60.6l-.3 4-.3 3.9-7 1.6c-3.8.9-8.1 2.2-9.3 2.9-5.1 2.7-5.2 3.9-5.2 62.5 0 50.3-.2 55.3-2 64.8-2.6 13.6-7.2 23.1-15.1 31.3-14.3 15-36.1 20.7-69.9 18.4z"/><path d="m399.8 385.8c-.6-4 .1-4.6 7.6-6.7 11.8-3.3 11.1-.2 11.4-43.4.5-58.3.9-56.8-16.8-61.6-2-.5-2.6-1.4-2.8-4.2l-.3-3.6 12.5-.6c6.9-.4 18.2-1.6 25.2-2.8 16.4-2.8 16-3.1 14.5 11.6-1.6 15.9-1.4 95.3.2 98.5 1.4 2.8 6.4 5.5 11.9 6.4 4.4.7 7 3.1 6.6 6-.3 2.1-.5 2.1-23.3 1.8-12.6-.1-28.3.1-34.7.5l-11.6.8z"/><path d="m804.2 384 .3-4.4 7.3-1.7c4.5-1 8.2-2.5 9.7-3.9l2.5-2.3v-154.6l-2.2-2.5c-1.6-1.8-4.5-3.1-9.8-4.3l-7.5-1.8-.6-9 19.1.9c10.5.4 27.5.4 38 0l19.1-.9-.6 9-8.4 2.1c-5.1 1.3-9 2.9-9.8 4-1.1 1.4-1.3 16.2-1.3 79.2 0 47.6.4 78 1 79.1 1.1 2.2 5.4 4.1 12.8 5.5l5.7 1.2.3 4.4.3 4.5-19.1-.9c-10.5-.4-27.5-.4-38 0l-19.1.9z"/><path d="m425.5 237.1c-7.4-3.4-11.5-10.2-11.5-18.8.1-21.4 28.3-28.1 38.1-9.1 2.1 4.2 2.5 13 .8 17.5-3.7 9.9-17.3 15.1-27.4 10.4z"/></g></svg>