<?xml version="1.0" encoding="UTF-8" standalone="no"?><!DOCTYPE svg PUBLIC "-//W3C//DTD SVG 1.1//EN" "http://www.w3.org/Graphics/SVG/1.1/DTD/svg11.dtd"><svg width="100%" height="100%" viewBox="0 0 24 24" version="1.1" xmlns="http://www.w3.org/2000/svg" xmlns:xlink="http://www.w3.org/1999/xlink" xml:space="preserve" xmlns:serif="http://www.serif.com/" style="fill-rule:evenodd;clip-rule:evenodd;stroke-linejoin:round;stroke-miterlimit:2;"><path id="Hexchat" d="M6.023,1.892c3.902,-0.605 8.052,-0.605 11.954,-0c2.487,2.996 4.604,6.405 6.023,10.108c-1.419,3.703 -3.536,7.112 -6.023,10.108c-3.902,0.605 -8.052,0.605 -11.954,0c-2.487,-2.996 -4.604,-6.405 -6.023,-10.108c1.419,-3.703 3.536,-7.112 6.023,-10.108Zm-0.645,6.926c-0.585,1.018 -1.098,2.081 -1.52,3.182c0.459,1.198 1.073,2.303 1.723,3.402l3.132,-2.992l-3.335,-3.592Zm2.824,9.809c2.652,0.261 4.763,0.251 7.372,-0.096l-3.757,-3.436l-3.615,3.532Zm9.921,-3.205c0.696,-1.152 1.347,-2.393 1.831,-3.656c-0.456,-1.191 -0.971,-2.008 -1.616,-3.1l-3.578,3.784l3.363,2.972Zm-3.002,-10.355c-2.247,-0.127 -4.493,-0.153 -6.726,0.062l3.455,3.56l3.271,-3.622Z"/></svg>