<svg clip-rule="evenodd" fill-rule="evenodd" stroke-linejoin="round" stroke-miterlimit="2" viewBox="0 0 24 24" xmlns="http://www.w3.org/2000/svg"><path d="m128.5 40.36c83.228-12.914 171.772-12.914 255 0 53.067 63.924 98.221 136.641 128.5 215.64-30.279 78.999-75.433 151.716-128.5 215.64-83.228 12.914-171.772 12.914-255 0-53.067-63.924-98.221-136.641-128.5-215.64 30.279-78.999 75.433-151.716 128.5-215.64zm-13.761 147.766c-12.484 21.71-23.426 44.383-32.43 67.874 9.795 25.554 22.883 49.139 36.754 72.571l66.823-63.831zm60.242 209.257c56.573 5.57 101.616 5.344 157.262-2.046l-80.157-73.307zm211.65-68.372c14.839-24.587 28.726-51.05 39.06-78.011-9.732-25.391-20.729-42.825-34.488-66.121l-76.319 80.722zm-64.059-220.913c-47.936-2.714-95.844-3.271-143.474 1.331l73.7 75.943z" transform="matrix(.0455933 0 0 .0455933 .328125 .328125)"/></svg>