<svg clip-rule="evenodd" fill-rule="evenodd" stroke-linejoin="round" stroke-miterlimit="2" viewBox="0 0 24 24" xmlns="http://www.w3.org/2000/svg"><path d="m232.587 170.487c-5.527 5.714-5.379 14.824.329 20.356 0 0 29.68 29.557 66.779 66.502 7.928 7.895 9.206 17.377 5.241 31.113s-14.228 29.85-27.406 43.084c-13.178 13.233-29.25 23.563-42.969 27.586-13.719 4.022-23.207 2.783-31.135-5.112-18.496-18.419-35.009-35.162-47.019-47.268-6.004-6.052-10.864-10.939-14.372-14.376-1.754-1.718-3.142-3.041-4.337-4.128-.597-.543-1.085-.988-1.923-1.64-.419-.326-.809-.692-2.103-1.417-.647-.362-1.422-.883-3.61-1.435s-8.393-1.608-13.783 3.805c-3.207 3.139-4.768 7.593-4.222 12.047s3.136 8.399 7.006 10.67c.713.666 1.526 1.412 2.817 2.678 3.271 3.205 8.106 8.063 14.085 14.09 11.96 12.055 28.533 28.858 47.136 47.384 16.186 16.118 39.37 18.262 59.569 12.34 20.198-5.922 39.301-18.863 55.27-34.899s28.83-35.192 34.668-55.415 3.598-43.399-12.588-59.517c-37.099-36.945-66.779-66.502-66.779-66.502-2.719-2.782-6.448-4.346-10.339-4.336-3.89.01-7.611 1.594-10.315 4.39z" transform="matrix(.0887099 0 0 .0887099 -6.37678 -11.1486)"/><path d="m174.228 229.707c-5.527 5.713-5.38 14.824.328 20.356l74.869 74.557c3.628 3.717 8.977 5.192 13.998 3.861s8.936-5.263 10.247-10.289c1.31-5.026-.188-10.369-3.92-13.982l-74.869-74.557c-2.719-2.782-6.448-4.346-10.338-4.336s-7.611 1.593-10.315 4.39z" transform="matrix(.0887099 0 0 .0887099 -6.37678 -11.1486)"/><path d="m100 40c0 16.458-13.542 30-30 30s-30-13.542-30-30 13.542-30 30-30 30 13.542 30 30z" transform="matrix(.0300506 -.0301762 .0301762 .0300506 -1.42436 13.1672)"/><path d="m100 40c0 16.458-13.542 30-30 30s-30-13.542-30-30 13.542-30 30-30 30 13.542 30 30z" transform="matrix(.0300506 -.0301762 .0301762 .0300506 3.68424 8.03729)"/><path d="m100 40c0 16.458-13.542 30-30 30s-30-13.542-30-30 13.542-30 30-30 30 13.542 30 30z" transform="matrix(.0300506 -.0301762 .0301762 .0300506 8.9431 2.75647)"/></svg>