<svg clip-rule="evenodd" fill-rule="evenodd" stroke-linejoin="round" stroke-miterlimit="2" viewBox="0 0 24 24" xmlns="http://www.w3.org/2000/svg"><g transform="matrix(.0968475 0 0 .0968475 -.3964828125 -84.31675)"><path d="m72.422 1098.36h111.156c4.134 0 7.536-3.41 7.536-7.54v-111.155c0-4.134-3.402-7.536-7.536-7.536h-111.156c-4.134 0-7.536 3.402-7.536 7.536v111.155c0 4.13 3.402 7.54 7.536 7.54zm59.534-40.91h39.941c2.481 0 4.522 2.04 4.522 4.52s-2.041 4.52-4.522 4.52h-39.941c-2.48 0-4.521-2.04-4.521-4.52s2.041-4.52 4.521-4.52zm-48.034-48.76c-.78-.83-1.214-1.94-1.214-3.08 0-2.48 2.042-4.52 4.522-4.52 1.144 0 2.246.43 3.083 1.21l28.244 28.23c1.752 1.76 1.752 4.64 0 6.39l-28.244 28.25c-.837.78-1.939 1.21-3.083 1.21-2.48 0-4.521-2.04-4.521-4.52 0-1.14.433-2.25 1.213-3.08l25.05-25.05z" fill-rule="nonzero"/><path d="m102.491 958.02c2.007 0 3.612-3.813 3.612-8.715 0-4.901-1.605-8.714-3.612-8.714-2.006 0-3.612 3.813-3.612 8.714 0 4.902 1.606 8.715 3.612 8.715z"/><path d="m206.003 892.679c-4.902-5.174-27.232 1.089-40.848 9.531-10.621-5.446-23.42-8.714-37.036-8.714-13.888 0-26.687 3.268-37.308 8.714-13.616-8.442-36.219-14.978-40.848-9.531-4.902 5.446 3.54 28.049 13.616 40.576-.817 3.268-1.362 6.535-1.362 10.076 0 10.892 4.63 20.968 12.527 29.138h44.933c-1.361-2.723.545-4.357 8.714-4.357 8.17.272 9.804 1.634 8.715 4.357h44.933c7.897-8.17 12.527-18.518 12.527-29.138 0-3.541-.545-6.808-1.362-10.076 9.531-12.527 17.701-35.402 12.799-40.576zm-103.482 71.893c-9.531 0-17.429-7.898-17.429-17.429s7.898-17.428 17.429-17.428 17.429 7.897 17.429 17.428-7.898 17.429-17.429 17.429zm51.196 0c-9.531 0-17.428-7.898-17.428-17.429s7.897-17.428 17.428-17.428c9.532 0 17.429 7.897 17.429 17.428s-7.625 17.429-17.429 17.429z"/></g><path d="m65.039 90.887c-19.031-9.225-39.135-13.399-60.945-9.991 17.467-11.077 41.766-7.491 59.341 4.372.347 1.986.891 3.872 1.604 5.619zm-2.039-10.622c-13.152-9.015-27.664-14.35-44.473-16.525 15.009-5.189 32.539-.291 45.127 10.233-.426 1.972-.654 4.055-.654 6.208zm14.341 22.153c.094.087.187.175.28.263-.488-.19-.974-.377-1.459-.562.388.117.781.217 1.179.299zm-2.838-.922c-21.103-7.811-40.446-10.453-62.512-3.444 9.506-14.032 36.881-12.64 55.55-2.546 1.891 2.698 4.276 4.78 6.962 5.99z" transform="matrix(.0968475 0 0 .0968475 -.3964828125 -.39641875)"/><path d="m192.244 74.058c12.595-10.582 30.18-15.521 45.229-10.318-16.861 2.182-31.41 7.542-44.594 16.608 0-.055 0-.111 0-.167 0-2.122-.221-4.176-.635-6.123zm.184 11.302c17.586-11.936 41.965-15.57 59.478-4.464-21.868-3.417-42.02.788-61.096 10.064.717-1.74 1.266-3.62 1.618-5.6zm-4.164 10.252c18.672-10.19 46.206-11.641 55.745 2.44-23.147-7.353-43.299-4.085-65.63 4.629.105-.099.21-.198.316-.296 3.744-.815 7.076-3.262 9.569-6.773z" transform="matrix(.0968475 0 0 .0968475 -.3964828125 -.39641875)"/><path d="m56.107 953.134c-6.808 0-12.527 3.54-15.25 8.987h-.817c-7.352 0-13.616 5.446-13.616 12.254 0 9.531 9.804 14.706 18.79 11.438 5.447 7.897 17.157 8.442 21.514 0 6.535-.273 17.156-1.362 18.79-11.438 1.089-6.808-5.991-12.254-13.616-12.254h-.817c-2.179-5.447-8.17-8.987-14.978-8.987zm143.786 0c6.808 0 12.527 3.54 15.25 8.987h.817c3.812 0 13.616 5.446 13.616 12.254 0 9.531-9.804 14.706-18.79 11.438-5.447 7.897-17.157 8.442-21.514 0-6.535-.273-17.156-1.362-18.79-11.438-1.089-6.808 9.804-12.254 13.616-12.254h.817c2.179-5.447 8.17-8.987 14.978-8.987z" transform="matrix(.0968475 0 0 .0968475 -.3964828125 -84.31675)"/><path d="m153.112 958.02c2.006 0 3.611-3.813 3.611-8.715 0-4.901-1.605-8.714-3.611-8.714-2.007 0-3.612 3.813-3.612 8.714 0 4.902 1.605 8.715 3.612 8.715z" transform="matrix(.0968475 0 0 .0968475 -.3964828125 -84.31675)"/></svg>