<?xml version="1.0" encoding="UTF-8" standalone="no"?><!DOCTYPE svg PUBLIC "-//W3C//DTD SVG 1.1//EN" "http://www.w3.org/Graphics/SVG/1.1/DTD/svg11.dtd"><svg width="100%" height="100%" viewBox="0 0 24 24" version="1.1" xmlns="http://www.w3.org/2000/svg" xmlns:xlink="http://www.w3.org/1999/xlink" xml:space="preserve" xmlns:serif="http://www.serif.com/" style="fill-rule:evenodd;clip-rule:evenodd;stroke-linejoin:round;stroke-miterlimit:2;"><path id="Kitty" d="M4.953,7.994c-1.56,-0.598 -3.2,-0.83 -4.953,-0.556c1.681,-1.066 4.017,-0.729 5.716,0.403c-0.037,-0.167 -0.062,-0.336 -0.076,-0.508c-1.256,-0.846 -2.642,-1.349 -4.242,-1.556c1.407,-0.487 3.042,-0.058 4.251,0.894c0.023,-0.206 0.062,-0.405 0.112,-0.604c-0.976,-1.214 -1.793,-3.403 -1.319,-3.93c0.449,-0.528 2.638,0.105 3.956,0.923c1.029,-0.527 2.269,-0.844 3.614,-0.844c1.318,0 2.558,0.317 3.586,0.844c1.319,-0.818 3.482,-1.424 3.956,-0.923c0.475,0.501 -0.316,2.716 -1.239,3.93c0.045,0.182 0.082,0.363 0.105,0.55c1.202,-0.914 2.802,-1.318 4.182,-0.84c-1.567,0.202 -2.928,0.689 -4.163,1.503c-0.012,0.17 -0.035,0.338 -0.07,0.505c1.692,-1.087 3.977,-1.395 5.631,-0.347c-1.753,-0.274 -3.393,-0.042 -4.953,0.556c0.269,0.012 0.519,0.082 0.736,0.198c1.412,-0.248 2.829,-0.013 3.452,0.908c-1.002,-0.319 -1.947,-0.432 -2.879,-0.383c0.031,0.046 0.058,0.095 0.084,0.145l0.079,0c0.369,0 1.318,0.528 1.318,1.187c0,0.923 -0.949,1.424 -1.819,1.108c-0.465,0.674 -1.401,0.795 -1.906,0.255l0,9.914c0,0.4 -0.329,0.731 -0.729,0.731l-10.766,-0c-0.4,-0 -0.729,-0.331 -0.729,-0.731l-0,-9.914c-0.505,0.54 -1.441,0.419 -1.906,-0.255c-0.87,0.316 -1.819,-0.185 -1.819,-1.108c-0,-0.659 0.606,-1.187 1.318,-1.187l0.079,0c0.026,-0.05 0.053,-0.099 0.084,-0.145c-0.932,-0.049 -1.877,0.064 -2.879,0.383c0.623,-0.921 2.04,-1.156 3.452,-0.908c0.217,-0.116 0.467,-0.186 0.736,-0.198Zm6.226,1.838l1.715,-0c0.079,-0.242 -0.099,-0.364 -0.856,-0.39c-0.758,0 -0.959,0.146 -0.859,0.39Zm-1.647,-0.732c0.923,-0 1.688,-0.765 1.688,-1.688c0,-0.923 -0.765,-1.688 -1.688,-1.688c-0.923,-0 -1.688,0.765 -1.688,1.688c0,0.923 0.765,1.688 1.688,1.688Zm-0.002,-0.635c-0.195,0 -0.35,-0.369 -0.35,-0.844c-0,-0.475 0.155,-0.844 0.35,-0.844c0.194,0 0.349,0.369 0.349,0.844c0,0.475 -0.155,0.844 -0.349,0.844Zm4.961,0.635c0.949,-0 1.688,-0.765 1.688,-1.688c-0,-0.923 -0.765,-1.688 -1.688,-1.688c-0.923,-0 -1.688,0.765 -1.688,1.688c-0,0.923 0.765,1.688 1.688,1.688Zm-0.059,-0.635c-0.194,0 -0.35,-0.369 -0.35,-0.844c0,-0.475 0.156,-0.844 0.35,-0.844c0.194,0 0.35,0.369 0.35,0.844c-0,0.475 -0.156,0.844 -0.35,0.844Zm-2.049,9.63c-0.24,-0 -0.438,0.197 -0.438,0.437c0,0.241 0.198,0.438 0.438,0.438l3.868,0c0.241,0 0.438,-0.197 0.438,-0.438c0,-0.24 -0.197,-0.437 -0.438,-0.437l-3.868,-0Zm-4.652,-4.723l2.426,2.425l-2.426,2.426c-0.075,0.081 -0.117,0.188 -0.117,0.299c-0,0.24 0.197,0.437 0.438,0.437c0.11,0 0.217,-0.041 0.298,-0.117l2.735,-2.736c0.17,-0.169 0.17,-0.448 0,-0.618l-2.735,-2.735c-0.081,-0.075 -0.188,-0.117 -0.298,-0.117c-0.241,0 -0.438,0.198 -0.438,0.438c-0,0.11 0.042,0.218 0.117,0.298Z"/></svg>