<svg clip-rule="evenodd" fill-rule="evenodd" stroke-linejoin="round" stroke-miterlimit="2" viewBox="0 0 24 24" xmlns="http://www.w3.org/2000/svg"><path d="m1116.89 1689.42c-5.95-6.45-9.87-14.75-11.08-23.44-1.21-8.7.3-17.75 4.26-25.58 3.97-7.84 10.36-14.41 18.09-18.59 7.72-4.18 16.72-5.93 25.45-4.96 14.03 1.56 27.04 10.43 33.62 22.93l79.05 10.9h-90.1c-5.62-7.19-14.11-12.08-23.16-13.32-6.46-.89-13.16.04-19.13 2.66s-11.19 6.92-14.91 12.28-5.92 11.76-6.28 18.27c-.37 6.51 1.1 13.11 4.19 18.85" fill-rule="nonzero" transform="matrix(.0839985 0 0 .0839325 -83.1827 -134.239)"/><path d="m90.534 150.243c-6.209-3.559-11.841-8.12-16.549-13.511-8.427-9.651-13.892-21.85-15.482-34.559-1.59-12.71.702-25.877 6.492-37.304l120.865 86.834-99.699-55.893c-3.027 9.025-3.379 18.928-.999 28.145 2.079 8.046 6.221 15.551 11.922 21.6 4.106 4.357 9.014 7.952 14.395 10.577l67.672 19.028-83.609-13.674c.822 8.03 3.832 15.826 8.62 22.328 8.481 11.516 22.657 18.62 36.966 18.524-14.283 3.837-30.114 1.509-42.686-6.276-8.474-5.247-15.454-12.877-19.925-21.781-4.471-8.905-6.42-19.056-5.564-28.982z" transform="matrix(.0840925 0 0 .0840925 -4.06119 -2.71619)"/><path d="m1169.78 1675.73c-1.98 4.1-3.35 8.49-4.06 12.98-2.22 13.94 1.92 28.03 6.05 41.53s8.34 27.54 6.26 41.51c-1.56 10.42-6.64 20.18-13.76 27.96s-16.2 13.63-25.96 17.62c-16.08 6.56-34.17 8.1-51.13 4.35v46.42l13.95-33.13c18.07 4.12 37.42 2.45 54.52-4.71 12.25-5.12 23.42-13.11 31.48-23.66s12.86-23.74 12.52-37.01c-.41-15.96-7.94-30.74-15.23-44.94-7.3-14.2-14.69-29.1-14.77-45.06-.01-1.29.04-2.58.13-3.86" fill-rule="nonzero" transform="matrix(.0839985 0 0 .0839325 -83.1827 -134.239)"/></svg>