<svg clip-rule="evenodd" fill-rule="evenodd" stroke-linejoin="round" stroke-miterlimit="2" viewBox="0 0 24 24" xmlns="http://www.w3.org/2000/svg"><path d="m51.6 0c-28.5 0-51.6 23.1-51.6 51.6s23.1 51.6 51.6 51.6 51.6-23.1 51.6-51.6-23.1-51.6-51.6-51.6zm24.5 58.6c-.5 2-1.3 3.6-2.4 4.9-1 1.3-2 2.1-3.1 2.5s-2.2.6-3.4.6-2.2-.2-3-.7c-.8-.4-1.4-1.1-1.9-1.9s-.8-1.8-1-2.9-.3-2.3-.3-3.6c0-.5 0-1 .1-1.7s.2-1.6.3-1.6h-.2c-1.6 4-3.8 6.9-6.6 9.2s-5.9 3.4-9.3 3.4c-2.3 0-4.2-.9-5.5-2.6-1.4-1.7-2.1-4.3-2.1-7.7 0-.5 0-1 .1-1.6.1-.5.1-.7.2-1.7h-.7c-.9 2-1.7 4.8-2.3 7.3s-1.1 4.8-1.4 6.9c-.4 2.1-.6 4-.8 5.6s-.3 2.7-.4 3.3c.1.5.2 1 .3 1.6.2.6.3 1.2.5 1.7s.3 1.1.4 1.6.2.9.2 1.2c0 1.4-.3 2.5-.9 3.2s-1.3 1.1-2 1.1c-.9 0-1.7-.3-2.3-.8-.7-.6-1-1.5-1-2.7 0-1.7.3-3.9.9-6.5s1.5-5.9 2.6-9.8c.6-1.8 1.1-3.6 1.7-5.4s1.1-3.5 1.6-5 .9-2.9 1.3-4.1.6-2.1.7-2.8c.1-.3.2-1 .3-2s.2-2.1.4-3.4.3-2.7.5-4.1c.2-1.5.4-2.8.5-4 .2-.9.3-1.9.5-3s.5-2.2.9-3.1c.4-1 1-1.8 1.7-2.5s1.6-1 2.7-1c1.2 0 2 .4 2.4 1.1s.6 1.6.5 2.6-.2 2.1-.5 3.2-.6 2.1-.9 2.9c-.8 2.5-1.6 4.8-2.5 6.7s-1.7 4-2.4 6.2c-.6 1.5-.8 2.9-.8 4.1 0 2.2.7 3.8 2 5 1.4 1.2 3 1.7 4.9 1.7 1.5 0 3-.5 4.4-1.6s2.7-2.4 3.9-3.9 2.2-3.1 3-4.9c.8-1.7 1.4-3.3 1.8-4.6.1-.2.2-.6.3-1.4.2-.8.3-1.7.5-2.7s.4-2 .6-3.1.4-2 .5-2.7c.2-.8.3-1.6.5-2.6s.5-1.9.9-2.8 1-1.6 1.6-2.2c.7-.6 1.5-.9 2.6-.9 1.3 0 2.1.4 2.6 1.1.4.7.6 1.6.6 2.6-.1 1-.2 2-.5 3s-.5 1.8-.7 2.4c-.8 2.5-1.6 4.7-2.4 6.7s-1.5 3.8-2.2 5.2c-.6 1.5-1.1 2.6-1.5 3.5s-.6 1.5-.6 1.8c0 2.6.6 4.5 1.7 5.6s2.3 1.7 3.6 1.7c2.2 0 3.9-.7 5.2-2 1.3-1.4 2.3-3.9 2.9-6.9h.8c.2 2.9-.1 5.3-.6 7.3z" fill-rule="nonzero" transform="matrix(.228829 0 0 .228829 .19242 .19242)"/></svg>