<svg clip-rule="evenodd" fill-rule="evenodd" stroke-linejoin="round" stroke-miterlimit="2" viewBox="0 0 24 24" xmlns="http://www.w3.org/2000/svg"><g fill-rule="nonzero" transform="scale(9.6)"><path d="m2.083 1.5c.046 0 .084.037.084.083s-.038.084-.084.084-.083-.038-.083-.084.037-.083.083-.083z"/><path d="m.917 1.5h.5c.046 0 .083.037.083.083s-.037.084-.083.084h-.5c-.046 0-.084-.038-.084-.084s.038-.083.084-.083z"/><path d="m.75 1c.046 0 .083.037.083.083v.167c0 .046-.037.083-.083.083s-.083-.037-.083-.083v-.167c0-.046.037-.083.083-.083z"/><path d="m.333 1.079c.003-.136.114-.246.25-.246.064 0 .123.024.167.064.044-.04.103-.064.167-.064.136 0 .247.11.25.246v.004.167c0 .046-.038.083-.084.083s-.083-.037-.083-.083v-.167c0-.046-.037-.083-.083-.083s-.084.037-.084.083v.167c0 .046-.037.083-.083.083s-.083-.037-.083-.083v-.167c0-.046-.038-.083-.084-.083s-.083.037-.083.083v.167c0 .046-.037.083-.083.083s-.084-.037-.084-.083v-.167c0-.001 0-.003 0-.004z"/><path d="m1.833 1.333v.25c0 .046-.037.084-.083.084s-.083-.038-.083-.084v-.25h-.24c-.052 0-.094-.037-.094-.083s.042-.083.094-.083h.647c.051 0 .093.037.093.083s-.042.083-.093.083z"/><path d="m1.75.833h.333c.046 0 .084.038.084.084s-.038.083-.084.083h-.333c-.046 0-.083-.037-.083-.083s.037-.084.083-.084z"/><path d="m.417 1.5h.166c.046 0 .084.037.084.083s-.038.084-.084.084h-.166c-.046 0-.084-.038-.084-.084s.038-.083.084-.083z"/><path d="m1.375.833h.042c.046 0 .083.038.083.084s-.037.083-.083.083h-.042c-.046 0-.083-.037-.083-.083s.037-.084.083-.084z"/><path d="m.167 1.5h-.167v-.583c0-.23.187-.417.417-.417h1.666c.23 0 .417.187.417.417v.666c0 .23-.187.417-.417.417h-1.666c-.23 0-.417-.187-.417-.417v-.166h.167v.166c0 .138.112.25.25.25h1.666c.138 0 .25-.112.25-.25v-.666c0-.138-.112-.25-.25-.25h-1.666c-.138 0-.25.112-.25.25z"/></g></svg>