<svg clip-rule="evenodd" fill-rule="evenodd" stroke-linejoin="round" stroke-miterlimit="2" viewBox="0 0 24 24" xmlns="http://www.w3.org/2000/svg"><path d="m128 .001c70.645 0 128 57.355 128 128 0 70.644-57.355 127.999-128 127.999s-128-57.355-128-127.999c0-70.645 57.355-128 128-128zm37.134 31.141-33.759 20.135v51.497l33.759-20.135zm-58.685 4.505c-30.954-.17-89.591 8.77-89.851 75.148-.315 80.524 60.029 62.14 73.705 54.013 26.297-15.528 53.39-31.957 78.207-46.498 13.515-7.906 38.822-13.053 38.822 24.082 0 37.134-27.478 48.648-42.198 47.852v-62.713l-33.759 19.924v71.567c1.819.373 8.7 1.279 18.176 1.331 30.954.17 89.592-8.77 89.851-75.148.315-80.524-60.028-62.14-73.705-54.013-26.297 15.528-53.389 31.957-78.207 46.498-13.515 7.906-38.821 13.053-38.821-24.082 0-37.134 27.477-48.648 42.197-47.852v62.713l33.759-19.924v-71.567c-1.819-.373-8.7-1.279-18.176-1.331zm18.176 117.579-33.759 20.135v51.497l33.759-20.135z" transform="scale(.09375)"/></svg>