<?xml version="1.0" encoding="UTF-8" standalone="no"?><!DOCTYPE svg PUBLIC "-//W3C//DTD SVG 1.1//EN" "http://www.w3.org/Graphics/SVG/1.1/DTD/svg11.dtd"><svg width="100%" height="100%" viewBox="0 0 24 24" version="1.1" xmlns="http://www.w3.org/2000/svg" xmlns:xlink="http://www.w3.org/1999/xlink" xml:space="preserve" xmlns:serif="http://www.serif.com/" style="fill-rule:evenodd;clip-rule:evenodd;stroke-linejoin:round;stroke-miterlimit:2;"><path id="quteBrowser" d="M12,0c6.623,0 12,5.377 12,12c0,6.623 -5.377,12 -12,12c-6.623,0 -12,-5.377 -12,-12c0,-6.623 5.377,-12 12,-12Zm3.481,2.92l-3.165,1.887l0,4.828l3.165,-1.888l0,-4.827Zm-5.501,0.422c-2.902,-0.016 -8.4,0.822 -8.424,7.045c-0.029,7.549 5.628,5.826 6.91,5.064c2.465,-1.456 5.005,-2.996 7.332,-4.359c1.267,-0.742 3.639,-1.224 3.639,2.257c0,3.482 -2.576,4.561 -3.956,4.486l0,-5.879l-3.165,1.868l0,6.709c0.171,0.035 0.816,0.12 1.704,0.125c2.902,0.016 8.4,-0.822 8.424,-7.045c0.029,-7.549 -5.628,-5.826 -6.91,-5.064c-2.465,1.456 -5.005,2.996 -7.332,4.359c-1.267,0.742 -3.639,1.224 -3.639,-2.257c-0,-3.482 2.576,-4.561 3.956,-4.486l-0,5.879l3.165,-1.868l-0,-6.709c-0.171,-0.035 -0.816,-0.12 -1.704,-0.125Zm1.704,11.023l-3.165,1.888l-0,4.827l3.165,-1.887l-0,-4.828Z"/></svg>