<svg clip-rule="evenodd" fill-rule="evenodd" viewBox="0 0 24 24" xmlns="http://www.w3.org/2000/svg"><path d="m118.946 209.569c-.915.501 7.297 5.883 22.687 12.219 15.391 6.336 36.667 22.377 35 24.969-4.999 7.041-7.941 15.482-5.906 29.906.367 2.539-7.543 6.95-6.969 10.781.48 2.915 8.838-2.896 9.75-1.75.558 2.057-4.466 12.475-2.437 13.219 1.484.441 14.523-12.401 15.281-12.187 21.514 6.504 49.52 1.612 50.062 1.406-.051-.113 20.12 9.492 21.875 8.344 4.427-4.794-8.387-11.551-6.25-14.25.937-1.413 15.621 5.302 16.344 3.468 1.052-3.175-6.817-9.837-8-11.812-1.029-1.821-1.233-4.754 1.406-6.594 2.64-1.84 29.632-12.166 28.5-20.156-1.957-14.518-34.26-15.466-34.781-16.688-.245-.574 1.448-20.76-7.969-17.031-5.798 2.158-1.093 15.025-.718 16.688.346 1.531-2.574 1.359-3.125.687-1.23-1.502-5.273-14.925-10.063-12.531-6.718 3.704-.41 15.281-1.75 15.656-2.489 1.391-2.349 4.795-4.344 7.563-3.29 4.715-27.917-2.206-35.875-2.688-5.826-.344-11.38 4.421-11.906 3.813-7.094-7.104-21.765-19.485-37.844-23.594-9.017-2.447-22.43-9.528-22.968-9.438zm164.218 13c-.537.232-2.704 11.397-1.656 11.907.929.695 2.536-11.257 1.688-11.875-.014-.016-.014-.039-.032-.032zm7.969 1.532c-1.218-.023-7.715 10.36-6.219 11.468.929.695 6.711-11.044 6.313-11.437-.028-.023-.055-.031-.094-.031zm-31.5 12.656c1.539 0 2.781 1.404 2.781 3.156 0 1.753-1.242 3.188-2.781 3.188s-2.781-1.435-2.781-3.188c0-1.752 1.242-3.156 2.781-3.156zm-6.25 1.906c1.184 5.111 3.017 6.726 8.563 6.563-7.059 6.473-11.334-4.604-8.563-6.563zm14.938 13.375c.439-.035.775.034.968.219 2.781 1.008-11.933 6.311-12.031 5.562-.148-.516 7.987-5.531 11.063-5.781zm1.812 3.375c.152-.012.294.036.406.094 2.625 2.608-8.31 8.39-8.187 8.187-.881-.532 5.498-8.104 7.781-8.281z" stroke="#000" stroke-width=".27" transform="matrix(.135431 0 0 .135431 -15.7716 -22.4328)"/></svg>