<?xml version="1.0" encoding="UTF-8" standalone="no"?><!DOCTYPE svg PUBLIC "-//W3C//DTD SVG 1.1//EN" "http://www.w3.org/Graphics/SVG/1.1/DTD/svg11.dtd"><svg width="100%" height="100%" viewBox="0 0 24 24" version="1.1" xmlns="http://www.w3.org/2000/svg" xmlns:xlink="http://www.w3.org/1999/xlink" xml:space="preserve" xmlns:serif="http://www.serif.com/" style="fill-rule:evenodd;clip-rule:evenodd;stroke-linejoin:round;stroke-miterlimit:2;"><path id="Zathura" d="M15.586,1.057c-0.504,0.716 -0.61,1.247 -0.61,2.893c-0,1.115 -0.107,2.336 -0.266,2.734c-0.265,0.663 -0.292,0.69 -2.442,0.61l-2.203,-0.079l-0.132,-1.593c-0.213,-2.681 -1.593,-3.822 -2.894,-2.415c-0.477,0.504 -0.583,0.876 -0.53,2.15c0.079,1.619 -0.319,2.256 -1.381,2.256c-0.637,-0 -2.282,0.982 -2.468,1.486c-0.186,0.504 0.265,1.699 0.69,1.725c0.186,0.027 0.929,0.027 1.619,-0.026c0.823,-0.027 1.513,0.106 1.938,0.398c0.61,0.372 0.663,0.584 0.584,1.938l-0.08,1.512l-2.92,0.133c-3.848,0.186 -4.91,0.743 -4.353,2.362c0.16,0.452 0.319,0.85 0.319,0.85c0.027,0.026 1.593,0.133 3.504,0.212l3.45,0.159l0.212,2.23c0.213,2.336 0.637,3.212 1.513,3.212c0.664,-0 0.797,-0.531 0.797,-3c-0,-3.503 0.026,-3.53 2.68,-3.822c2.15,-0.212 2.363,0 2.363,2.575c-0,1.672 0.106,2.176 0.557,2.76c0.717,0.903 1.194,0.876 1.699,-0.133c0.371,-0.716 0.398,-1.061 0.106,-2.654c-0.425,-2.389 -0.239,-2.627 2.07,-2.627c1.991,-0 3.796,-0.744 3.796,-1.593c-0,-0.61 -0.85,-1.141 -1.434,-0.902c-0.238,0.106 -1.088,0.079 -1.858,-0c-1.964,-0.266 -2.813,-1.036 -2.813,-2.628c-0,-1.619 0.451,-2.814 1.141,-2.973c0.319,-0.079 1.593,-0.239 2.814,-0.398c2.362,-0.265 2.946,-0.557 2.946,-1.354c-0,-0.477 -0.239,-0.504 -3.052,-0.504c-2.893,0 -3.053,-0.026 -3.451,-0.637c-0.345,-0.504 -0.371,-0.929 -0.159,-2.389c0.425,-3.026 -0.504,-4.326 -1.752,-2.468Zm-0.77,9.104c0.213,0.531 0.213,3.397 0,3.928c-0.132,0.319 -0.557,0.425 -1.937,0.425c-2.256,-0 -2.708,-0.319 -2.867,-2.044c-0.133,-1.221 -0.079,-1.354 0.717,-2.017c0.69,-0.611 1.088,-0.717 2.389,-0.717c1.168,0 1.566,0.106 1.698,0.425Z" style="fill-rule:nonzero;"/></svg>