<svg clip-rule="evenodd" fill-rule="evenodd" stroke-linejoin="round" stroke-miterlimit="2" viewBox="0 0 24 24" xmlns="http://www.w3.org/2000/svg"><g fill="#080317" fill-rule="nonzero" transform="matrix(.00897634 0 0 .00897634 .240993 .191448)"><path d="m660.1 2293.9c-359.4-178.7-653.6-325.1-653.9-325.3-.3-.4-6.1-1308.4-5.7-1309.2.1-.4 1303.6-658.4 1304.3-658.4.8 0 1308.1 649.6 1309 650.4.3.4 6.1 1308.2 5.7 1309.2-.2.7-1303.7 658.4-1304.7 658.3-.7-.1-295.3-146.3-654.7-325zm639.4 116.1c14.3-3.4 26.5-6.6 27.1-7.3 3.5-3.7 238.4-309 238.1-309.4-.3-.2-7.4 1.2-15.8 3.3l-15.4 3.7-88 44.3c-81.3 41-88.4 44.4-93 44.4-2.7 0-31.6-3.3-64.1-7.4l-59.1-7.3-61.9-31.3c-34.1-17.2-74.9-37.9-90.9-46-136.6-69.4-264.3-134-265.1-134-.5.1-5.3 4.2-10.7 9.3l-9.7 9.2 4.9 78 5 78 7.7 24.7 7.7 24.6 109.6 55.3c60.3 30.4 114.1 57.6 119.6 60.4 5.5 2.9 53.4 27.1 106.5 53.8s101.6 51.3 107.9 54.5c6.3 3.3 12 5.8 12.5 5.6.6-.2 12.8-3.1 27.1-6.4zm692.5-307 380.3-192.5 16.5-24.9 16.4-24.9-6.8-6.7c-3.8-3.7-36.8-35.4-73.4-70.5s-70.1-67.3-74.5-71.7l-8.1-7.8-17.3-4.6c-9.6-2.5-17.9-4.3-18.5-4.1-.7.3-2.1 9.1-3.5 22.3-1.3 12.1-2.8 22.8-3.2 24-.5 1.3-21.8 15.7-58.1 39.1l-57.3 37-122.5 58.3-122.5 58.4-44 29.7c-24.2 16.3-45.2 31-46.6 32.6-1.4 1.5-63.3 79.5-137.4 173.3-74.2 93.8-136.2 172.1-137.7 174.1l-2.9 3.6 2.2 7.4c1.2 4.1 2.4 7.7 2.6 8.2.2.4 30.9-14.7 68.2-33.5 37.2-18.9 238.9-120.9 448.1-226.8zm-1298.4 8.4 12.1-2.6-.4-16.2c-.3-8.8-1.1-40.4-1.8-70.1l-1.3-54-11-34.9c-6.1-19.1-11.2-35-11.4-35.1-.3-.3-113.7-55.5-185-90.1-18.6-9-34.2-16.4-34.7-16.4-.4 0-42.2 18.4-92.7 40.8l-91.9 40.8-11.7 17.4c-6.5 9.6-11.8 17.8-11.8 18.1s23.1 12 51.3 25.9c28.1 14 91.5 45.4 140.7 69.8s94.5 46.8 100.5 49.7c6.1 2.9 36.8 18.1 68.3 33.8l57.3 28.5 5.7-1.3c3.1-.8 11.1-2.6 17.8-4.1zm994.1-221 348.4-174.6 20.5-30.6 20.4-30.7v-693.5l-20.2-30.4-20.3-30.3-29-14.7c-15.9-8.1-173.1-86.9-349.1-175.1l-320.2-160.5-37.3.1h-37.4l-698 349.4-20.7 31-20.8 31v692.5l20.4 30.7 20.5 30.6 184.3 92.5c101.4 50.8 258.1 129.5 348.3 174.8l164 82.3 38.9.1h38.8zm-1445.7-92.5c5.1-3.2 26.4-12.7 65-29 31.6-13.3 58-24.7 58.7-25.3.6-.6 11.5-19.1 24.2-41.2l23-40-2.4-167.5c-1.9-135-2.4-209.2-2.6-383.4-.1-118.8-.1-216.5 0-217.1 0-.6 9.5-14.9 21-31.8l20.8-30.7 294.6-144 31.8-30.1c17.6-16.5 31.9-30.3 31.9-30.6 0-1-45.3-144.7-46.1-146.3-.6-1.2-6-2-28.6-3.9l-27.8-2.3-237.2 118.6-237.1 118.6-60.2 81.6v10c0 5.5 1.2 91.5 2.5 191 2.4 167.5 2.5 203.4 2.4 483l-.2 302 16.7 19.7 16.6 19.7 12.8-8.1c7-4.4 16.1-10.2 20.2-12.9zm2190-32.8c6.7-1.6 12.3-3.1 12.5-3.3.4-.4-2.3-452-2.7-452.3-.2-.1-11.3-6.9-24.7-15.1l-24.4-14.8-69.3 13.8-69.4 13.9-3.8 6.1c-2.1 3.4-12.5 19.2-23 35.1l-19.1 29 6.5 96 6.4 96 99.2 99.2c54.6 54.6 99.4 99.3 99.4 99.3.1 0 5.7-1.3 12.4-2.9zm-103.7-548.5c49.3-11.7 89.9-21.5 90-21.7.2-.2 6.3-11.7 13.5-25.6l13.1-25.2 2.1-81.2c1.2-44.6 1.9-81.7 1.7-82.3-.3-.6-7.1-6.5-15.3-13.2l-14.9-12-67.8 27.1-67.7 27-29.4 23.7c-16.1 13.1-29.8 24.3-30.3 25s-6.4 13.5-13.1 28.4c-7.8 17.3-12.2 28.4-12.2 30.5 0 4.3 7.9 92.6 8.5 95.6.6 2.5 28 25.3 30.5 25.3.8 0 41.9-9.6 91.3-21.4zm-80.8-275.6 21-5 72-35.2c39.6-19.3 72.5-35.6 73.1-36.2 1.6-1.5 30.4-71.6 30.4-73.9 0-.9-1.5-6.6-3.4-12.5s-6-18.7-9.1-28.4l-5.6-17.7-17.2-8.9c-9.5-4.9-26.2-13.6-37.2-19.2s-27.6-14.2-37-19c-9.3-4.8-26.4-13.6-38-19.5-11.5-5.9-26.4-13.6-33-17s-24.5-12.7-39.9-20.5l-27.8-14.3-43.9-12.3c-24.2-6.8-44.4-12.4-44.9-12.4s-40.4 17.5-88.7 38.9l-87.8 39-10.6 14.9-10.7 15 10.2 5.2c5.5 2.9 14.6 7.6 20.1 10.5s16.8 8.7 25 13c8.3 4.3 20.4 10.6 27 14 6.6 3.5 23.9 12.4 38.5 20s33.3 17.2 41.5 21.5c8.3 4.3 36.8 19.1 63.5 33 26.7 13.8 48.9 25.5 49.3 25.9s8.2 24.4 17.3 53.2c9 28.8 16.6 52.9 16.8 53.6.3.8 1.6.9 4.3.2 2.1-.5 13.3-3.2 24.8-5.9zm-430.4-307.4c6.6-1.7 36.1-14.1 100.4-42.1 50.1-21.8 91.4-40 91.9-40.5s-1.9-9.7-5.9-22.3l-6.8-21.5-35.6-17.5c-19.6-9.7-90-44.6-156.6-77.7-66.5-33.1-160.1-79.5-208-103.3-47.8-23.8-115.1-57.2-149.4-74.3l-62.4-31-19.1 4.4c-10.5 2.5-19.4 4.7-19.8 5.1-.5.5-3.8 147.5-3.8 169.2v5.7l23.3 31.2 23.2 31.1 296 154.2 60.5 15.8c33.3 8.7 61 15.8 61.6 15.8.6.1 5.4-1 10.5-2.3zm-874.9-54.5 20.6-4.8 125.4-63.3c68.9-34.8 126-64 126.9-64.9 3.6-3.5 52.9-89.4 52.9-92-.1-1.4-4.3-33-9.3-70.1l-9.3-67.5-8.1-4.3-8.2-4.2-345.6 175.2-19.4 24-19.4 24.1 21.9 69.4 21.9 69.5 13.5 6.9c7.4 3.7 14 6.8 14.6 6.8.6.1 10.3-2.1 21.6-4.8z"/><path d="m1317.2 1641.9c-11.2-1.9-22.6-11-25.1-20.1-.9-3.1-1.1-14.9-.9-41.3.3-41.5.2-40.6 7.9-48.3 4.9-4.8 11-7.9 18.1-9.2 3.5-.7 86.7-.9 239.8-.8l234.5.3 6 2.8c6.9 3.2 12.7 8.4 15.8 14.2 2.1 3.9 2.2 4.9 2.2 43v39l-2.7 4.7c-3.6 6-9.8 11.2-16.7 14l-5.6 2.3-234 .1c-131.9.1-236.3-.2-239.3-.7z"/><path d="m847.5 1595.4c-56.4-49-56.8-49.3-59.5-55.1-4.2-9-3.5-22.9 1.5-30.5 1.3-2 50-45 108.2-95.5 58.2-50.4 108.1-93.9 111-96.6 12.6-11.8 12.4-22.6-.5-35-3.1-3-34.9-30.8-70.7-61.8-65.3-56.6-105.8-91.7-132.2-114.8-11.4-9.9-14.8-13.4-16.9-17.6-4.7-9.7-4.1-23.1 1.4-31.4 1.5-2.2 21.6-20.5 44.7-40.6 48.7-42.3 49.3-42.7 64.6-43.3 7.9-.4 11.1 0 16.7 1.7 6.1 1.8 8.4 3.3 18.8 12.3 45.9 39.4 329.9 286.1 334 290 8.1 7.8 9.6 11.8 9.2 24.1-.3 9-.6 10.8-3.1 14.9-2.1 3.7-40.2 37.2-172.5 152-93.3 81-170.5 148.2-171.4 149.3-13.4 15.5-20.6 20.5-29.4 20.5h-4.9z"/></g></svg>