<svg xmlns="http://www.w3.org/2000/svg" viewBox="0 0 24 24"><path d="M19.207 8.89h.915c2.084 0 3.777 1.693 3.777 3.778v7.555c0 2.084-1.693 3.777-3.777 3.777H3.878C1.794 24 .101 22.307.101 20.223v-7.555c0-2.085 1.693-3.778 3.777-3.778h.915V3.704C4.793 1.66 6.453 0 8.497 0h7.006c2.044 0 3.704 1.66 3.704 3.704zm-11.315.801c.823 1.441 2.355 2.41 4.108 2.41s3.285-.969 4.108-2.41c.145-.253.267-.521.366-.801.178-.507.274-1.054.274-1.624 0-.284-.024-.564-.07-.835 0 0-3.469.02-4.573.02 0 0 .012 1.035.012 1.767 2.51 0 2.624.003 2.624.003-.08.238-.19.463-.324.669-.204.315-.466.587-.77.801-.467.331-1.035.524-1.647.524s-1.18-.193-1.647-.524c-.304-.214-.566-.486-.77-.801-.303-.465-.479-1.024-.479-1.624 0-1.627 1.298-2.948 2.896-2.948.771 0 1.472.307 1.992.809l1.321-1.322c-.855-.849-2.025-1.373-3.313-1.373-2.621 0-4.748 2.166-4.748 4.834 0 .57.096 1.117.274 1.624.099.28.221.548.366.801m9.044 6.411c0-.124-.101-.225-.226-.225h-1.756c-.125 0-.226.101-.226.225v1.757c0 .124.101.226.226.226h1.756c.125 0 .226-.102.226-.226zm-11.36 0c0-.124-.101-.225-.226-.225H3.594c-.125 0-.226.101-.226.225v1.757c0 .124.101.226.226.226H5.35c.125 0 .226-.102.226-.226zm3.187-1.783-1.608-1.322v1.097c0 .124.101.225.225.225zm11.869-1.982c0-.124-.101-.225-.226-.225H18.65c-.125 0-.226.101-.226.225v1.757c0 .124.101.225.226.225h1.756c.125 0 .226-.101.226-.225zm-11.27 3.765c0-.124-.101-.225-.225-.225H7.38c-.124 0-.225.101-.225.225v1.757c0 .124.101.226.225.226h1.757c.124 0 .225-.102.225-.226zm-3.786-3.765c0-.124-.101-.225-.226-.225H3.594c-.125 0-.226.101-.226.225v1.757c0 .124.101.225.226.225H5.35c.125 0 .226-.101.226-.225zm15.056 3.765c0-.124-.101-.225-.226-.225H18.65c-.125 0-.226.101-.226.225v1.757c0 .124.101.226.226.226h1.756c.125 0 .226-.102.226-.226zm-3.696-3.105c-.499.41-1.061.868-1.623 1.322h1.397c.125 0 .226-.101.226-.225zm-3.79 3.067c-.683.547-1.146.917-1.146.917l-1.058-.871v1.749c0 .124.101.226.225.226h1.757c.124 0 .225-.102.225-.226v-1.757c0-.013-.001-.025-.003-.038"/></svg>
