<svg xmlns="http://www.w3.org/2000/svg" viewBox="0 0 24 24"><path d="M6.345 18.698c-.042-.054-.132-.197-.206-.314-.117-.198-.141-.219-.225-.219-.078 0-.132.039-.336.255-.347.368-.407.353-.593-.15-.108-.297-.12-.315-.207-.333-.08-.015-.134.012-.374.18-.153.108-.297.198-.321.198-.143 0-.182-.084-.248-.533-.033-.222-.045-.252-.117-.291-.075-.039-.102-.03-.375.093-.161.072-.329.132-.377.132-.141 0-.159-.054-.153-.462.006-.359.003-.368-.066-.416-.066-.042-.093-.042-.353.024-.333.087-.426.093-.489.027-.063-.063-.06-.153.015-.485.054-.237.06-.291.027-.351-.039-.072-.051-.075-.431-.081-.387-.009-.39-.009-.434-.09-.042-.075-.039-.096.095-.389.078-.168.141-.33.141-.357 0-.108-.075-.144-.416-.2-.504-.087-.528-.15-.225-.57.168-.233.195-.287.177-.359-.015-.078-.048-.099-.324-.201-.347-.129-.41-.171-.41-.288 0-.062.054-.131.254-.32.348-.327.348-.36-.006-.575-.335-.201-.368-.231-.368-.33s.066-.159.38-.347c.225-.135.249-.156.249-.243 0-.081-.036-.126-.24-.309-.248-.224-.287-.287-.257-.404.015-.057.078-.093.35-.198.267-.102.339-.144.36-.203.036-.093.036-.096-.18-.399-.288-.401-.255-.467.273-.554.305-.048.323-.054.356-.135.033-.078.021-.12-.105-.401-.209-.465-.176-.51.333-.498.485.015.512-.015.398-.443-.069-.264-.075-.429-.018-.476.063-.054.162-.048.489.026.299.069.308.072.368.015.057-.05.063-.086.057-.41-.009-.518.036-.548.497-.339.282.129.321.141.399.108.081-.033.087-.051.135-.356.087-.536.156-.566.575-.261.294.213.279.207.383.168.057-.021.096-.093.186-.333.129-.341.162-.389.285-.389.069 0 .129.048.317.255.309.341.348.341.549.024.218-.351.263-.399.362-.399.096 0 .147.057.363.411.116.191.14.218.221.218.075 0 .129-.045.324-.254.347-.378.425-.357.605.149.102.285.117.309.201.327.075.015.129-.012.359-.177.429-.305.495-.275.578.252.048.311.087.389.195.392.024 0 .186-.063.354-.141.293-.134.314-.137.389-.095.081.045.081.048.09.419l.009.378-.174.113c-.096.063-.284.225-.422.36l-.246.249-.219-.144c-.437-.288-.949-.513-1.474-.647l-.269-.069-.075.066c-.042.036-.21.194-.375.353-.455.435-.518.429-1.003-.087l-.315-.335-.284.072c-.689.17-1.342.503-1.894.958-.242.201-.824.836-.991 1.082-.18.26-.171.356.063.791.242.443.287.578.242.713-.042.129-.096.165-.593.386l-.407.18-.021.135c-.033.221-.024.686.021 1 .107.767.128.824.506 1.57.228.456.425.755.656 1.004l.156.165.455-.096c.438-.093.456-.093.56-.045.057.03.126.09.147.135.024.045.087.293.141.548l.099.467.243.093c.979.381 1.992.444 2.998.186.294-.075.707-.231.752-.285.018-.021.069-.224.117-.452.105-.503.141-.593.255-.653.117-.06.213-.057.563.018.458.096.464.099.629.323.255.342.62.656 1.07.917.075.045.033.159-.066.183-.045.012-.21-.012-.396-.054-.443-.108-.434-.114-.452.398-.015.387-.018.402-.087.435-.078.039-.144.021-.542-.162-.18-.084-.201-.087-.276-.048-.048.024-.084.054-.084.066s-.027.168-.057.347c-.077.456-.137.495-.44.285-.404-.279-.392-.273-.488-.252-.081.018-.099.045-.204.336-.177.491-.264.509-.605.129-.186-.207-.231-.24-.315-.24-.09 0-.111.021-.29.309-.171.272-.204.305-.288.314-.075.009-.105-.009-.165-.09m3.182-2.046c.296-.153.288-.575-.018-.719-.255-.12-.551.072-.551.36 0 .296.308.494.569.359m-7.502-5.485c.255-.12.297-.456.081-.653-.165-.153-.425-.126-.566.057-.15.197-.108.434.105.575.12.081.239.087.38.021m4.614-3.505c.147-.069.231-.204.231-.36 0-.15-.063-.261-.198-.341-.339-.207-.74.2-.539.542.053.09.251.206.347.206.033 0 .102-.02.159-.047M3.814 16.61c.186-.12.236-.299.144-.491-.072-.15-.195-.231-.348-.231-.392 0-.548.48-.234.716.108.078.324.084.438.006m2.337-1.504c-1.391-.096-2.262-.833-2.514-2.118-.216-1.114.087-2.187.815-2.885.413-.392.881-.632 1.42-.719.282-.045 1.034-.036 1.453.018.323.042 1.057.18 1.081.204.006.003.024.135.042.29.036.315.108.719.15.872.033.114.006.147-.135.147-.128 0-.146-.021-.248-.264-.213-.506-.525-.743-1.127-.847-.323-.054-.854-.021-1.12.072-.647.227-1.034.733-1.193 1.566-.059.333-.045 1.133.033 1.48.204.917.761 1.546 1.528 1.723.243.057.752.063.992.015l.162-.033v-.62c-.003-.342-.015-.68-.027-.755-.036-.18-.129-.255-.408-.315-.239-.054-.284-.093-.284-.245v-.084h1.168c1.082 0 1.171.003 1.186.051.009.03-.003.09-.024.134-.032.066-.074.093-.233.132-.132.036-.216.078-.261.132-.069.078-.069.09-.069.893 0 .449-.009.845-.018.878-.024.087-.108.12-.422.173-.605.102-1.372.144-1.947.105m7.265-.003c-.384-.051-.603-.275-.681-.698-.02-.108-.032-.65-.032-1.414v-1.237h-.51v-.117c0-.177.024-.213.132-.213.288 0 .569-.206.734-.536.051-.099.144-.234.207-.299.105-.111.132-.123.254-.123h.141v.898h.989v.129c0 .069-.021.159-.048.195-.042.063-.063.066-.494.066h-.447v1.276c0 1.366.012 1.507.141 1.591.111.072.389.036.593-.078.09-.051.192-.093.222-.093.051 0 .153.099.153.15 0 .03-.399.321-.525.383-.221.108-.557.159-.829.12m4.35.003c-1.088-.075-1.717-.536-1.894-1.39-.018-.087-.039-.902-.051-1.971l-.018-1.825-.084-.071c-.081-.069-.188-.105-.419-.147-.123-.021-.189-.12-.159-.24.015-.06.027-.06.584-.033.336.015.833.015 1.202 0l.629-.027v.105c0 .057-.012.12-.024.138s-.129.057-.258.087c-.18.039-.26.072-.323.135l-.084.083v1.555c0 1.645.015 1.861.147 2.238.089.252.191.414.35.554.249.219.662.324 1.136.285.647-.048.979-.24 1.186-.683.18-.384.183-.446.198-2.265.012-1.651.012-1.666-.048-1.744-.063-.077-.24-.149-.459-.188-.122-.018-.182-.093-.167-.204l.009-.066h1.815l-.009.12-.009.117-.21.048c-.113.027-.242.066-.278.087-.153.08-.156.116-.156 1.872 0 1.507-.006 1.657-.06 1.941-.078.408-.216.692-.452.938-.429.449-1.082.62-2.094.551m-8.155-.123c-.018-.119.003-.137.227-.2.354-.099.333-.006.342-1.3.015-1.747.027-1.702-.503-1.846-.06-.015-.078-.042-.084-.126l-.009-.108.374-.018c.207-.012.546-.048.755-.083.492-.084.48-.093.435.347-.048.476-.042 2.855.006 2.951.042.084.191.165.356.192.132.021.21.093.198.179-.009.063-.015.063-.698.054-.378-.003-.848.003-1.04.015l-.347.024zm12.115-.053.009-.132.219-.051c.135-.03.245-.075.29-.117l.075-.069V9.929l-.066-.074c-.048-.054-.134-.093-.293-.129l-.225-.054-.018-.27.572.027c.315.012.824.012 1.139 0L24 9.402l-.018.27-.252.063c-.152.039-.269.087-.293.12-.033.041-.039.485-.039 2.372 0 1.426.012 2.337.03 2.37.033.066.162.123.383.165l.171.036.009.132.009.134-.572-.027c-.315-.012-.824-.012-1.139 0l-.572.027zm-11.345-4.401c-.222-.102-.345-.306-.345-.564.003-.641.848-.841 1.142-.272.063.126.075.389.024.524-.111.297-.519.452-.821.312"/></svg>
