<svg xmlns="http://www.w3.org/2000/svg" viewBox="0 0 24 24"><path d="M6.023 1.892c3.902-.605 8.052-.605 11.954 0C20.464 4.888 22.581 8.297 24 12c-1.419 3.703-3.536 7.112-6.023 10.108-3.902.605-8.052.605-11.954 0C3.536 19.112 1.419 15.703 0 12 1.419 8.297 3.536 4.888 6.023 1.892m-.645 6.926C4.793 9.836 4.28 10.899 3.858 12c.459 1.198 1.073 2.303 1.723 3.402l3.132-2.992zm2.824 9.809c2.652.261 4.763.251 7.372-.096l-3.757-3.436zm9.921-3.205c.696-1.152 1.347-2.393 1.831-3.656-.456-1.191-.971-2.008-1.616-3.1L14.76 12.45zM15.121 5.067c-2.247-.127-4.493-.153-6.726.062l3.455 3.56z"/></svg>
