<svg xmlns="http://www.w3.org/2000/svg" viewBox="0 0 24 24"><path d="M10.535 7.233c-.537-.581-.89-1.328-.999-2.111s.027-1.598.384-2.304c.358-.706.934-1.297 1.63-1.674.696-.376 1.507-.534 2.294-.447 1.265.141 2.438.94 3.031 2.066L24 3.744h-8.121c-.507-.647-1.272-1.088-2.088-1.199-.582-.081-1.186.003-1.724.239s-1.009.623-1.344 1.106-.534 1.059-.566 1.646c-.033.586.099 1.18.378 1.697m-7.6 2.533c-.561-.321-1.069-.733-1.494-1.22C.681 7.676.188 6.575.044 5.428-.099 4.281.108 3.093.63 2.062l10.907 7.835L2.54 4.854c-.273.814-.305 1.708-.09 2.54.188.726.561 1.403 1.076 1.949.37.393.813.717 1.299.954l6.106 1.717-7.544-1.234c.074.725.345 1.428.778 2.015.765 1.039 2.044 1.68 3.335 1.672-1.289.346-2.717.136-3.852-.567-.764-.473-1.394-1.162-1.798-1.965-.403-.804-.579-1.72-.502-2.615zM15.302 6c-.008.116-.013.232-.012.348.007 1.437.673 2.779 1.331 4.058s1.336 2.61 1.373 4.048c.031 1.195-.402 2.383-1.128 3.333-.727.95-1.734 1.67-2.838 2.131-1.541.645-3.285.795-4.914.424l-1.257 2.984v-4.181c1.528.338 3.159.199 4.608-.391.88-.36 1.698-.887 2.34-1.587.642-.701 1.1-1.58 1.24-2.519.188-1.258-.191-2.522-.564-3.738-.372-1.216-.745-2.485-.545-3.741.064-.404.187-.799.366-1.169"/></svg>
