<svg xmlns="http://www.w3.org/2000/svg" viewBox="0 0 24 24"><path d="M12 0c6.623 0 12 5.377 12 12s-5.377 12-12 12S0 18.623 0 12 5.377 0 12 0m3.481 2.92-3.165 1.887v4.828l3.165-1.888zm-5.501.422c-2.902-.016-8.4.822-8.424 7.045-.029 7.549 5.628 5.826 6.91 5.064 2.465-1.456 5.005-2.996 7.332-4.359 1.267-.742 3.639-1.224 3.639 2.257 0 3.482-2.576 4.561-3.956 4.486v-5.879l-3.165 1.868v6.709c.171.035.816.12 1.704.125 2.902.016 8.4-.822 8.424-7.045.029-7.549-5.628-5.826-6.91-5.064-2.465 1.456-5.005 2.996-7.332 4.359-1.267.742-3.639 1.224-3.639-2.257 0-3.482 2.576-4.561 3.956-4.486v5.879l3.165-1.868V3.467c-.171-.035-.816-.12-1.704-.125m1.704 11.023-3.165 1.888v4.827l3.165-1.887z"/></svg>
