<svg xmlns="http://www.w3.org/2000/svg" viewBox="0 0 24 24"><path d="M15.586 1.057c-.504.716-.61 1.247-.61 2.893 0 1.115-.107 2.336-.266 2.734-.265.663-.292.69-2.442.61l-2.203-.079-.132-1.593C9.72 2.941 8.34 1.8 7.039 3.207c-.477.504-.583.876-.53 2.15.079 1.619-.319 2.256-1.381 2.256-.637 0-2.282.982-2.468 1.486s.265 1.699.69 1.725c.186.027.929.027 1.619-.026.823-.027 1.513.106 1.938.398.61.372.663.584.584 1.938l-.08 1.512-2.92.133c-3.848.186-4.91.743-4.353 2.362.16.452.319.85.319.85.027.026 1.593.133 3.504.212l3.45.159.212 2.23c.213 2.336.637 3.212 1.513 3.212.664 0 .797-.531.797-3 0-3.503.026-3.53 2.68-3.822 2.15-.212 2.363 0 2.363 2.575 0 1.672.106 2.176.557 2.76.717.903 1.194.876 1.699-.133.371-.716.398-1.061.106-2.654-.425-2.389-.239-2.627 2.07-2.627 1.991 0 3.796-.744 3.796-1.593 0-.61-.85-1.141-1.434-.902-.238.106-1.088.079-1.858 0-1.964-.266-2.813-1.036-2.813-2.628 0-1.619.451-2.814 1.141-2.973.319-.079 1.593-.239 2.814-.398C23.416 8.144 24 7.852 24 7.055c0-.477-.239-.504-3.052-.504-2.893 0-3.053-.026-3.451-.637-.345-.504-.371-.929-.159-2.389.425-3.026-.504-4.326-1.752-2.468m-.77 9.104c.213.531.213 3.397 0 3.928-.132.319-.557.425-1.937.425-2.256 0-2.708-.319-2.867-2.044-.133-1.221-.079-1.354.717-2.017.69-.611 1.088-.717 2.389-.717 1.168 0 1.566.106 1.698.425"/></svg>
