<svg xmlns="http://www.w3.org/2000/svg" viewBox="0 0 24 24"><path d="M6.045 21.017c-3.294-1.638-5.99-2.98-5.993-2.981C.05 18.032-.003 6.046 0 6.039.001 6.035 11.946.005 11.952.005c.008 0 11.987 5.953 11.996 5.96.002.004.055 11.988.052 11.997-.002.007-11.947 6.034-11.956 6.033-.006-.001-2.706-1.341-5.999-2.978m5.859 1.063c.131-.031.243-.06.248-.066.032-.034 2.185-2.832 2.182-2.836-.003-.001-.068.011-.145.031l-.141.034-.806.405c-.745.376-.81.407-.853.407-.024 0-.289-.03-.587-.067l-.542-.067-.567-.287c-.312-.158-.686-.348-.833-.422-1.251-.636-2.422-1.228-2.429-1.228-.005.001-.049.039-.098.086l-.089.084.045.715.046.714.07.227.071.225 1.004.507c.553.278 1.046.528 1.096.553.051.027.49.249.976.493.487.245.931.47.989.5s.11.053.114.051c.006-.002.118-.028.249-.059m6.346-2.813 3.485-1.764.151-.228.15-.228-.062-.062c-.035-.033-.337-.324-.673-.646-.335-.321-.642-.616-.683-.657l-.074-.071-.158-.042c-.088-.023-.164-.04-.17-.038-.006.003-.019.084-.032.205-.012.11-.026.208-.029.219-.005.012-.2.144-.533.359l-.525.339-1.122.534-1.123.535-.403.272c-.222.15-.414.284-.427.299-.013.014-.58.729-1.259 1.588-.68.86-1.248 1.577-1.262 1.596l-.027.033.021.067c.011.038.022.071.023.076.002.003.284-.135.625-.307.341-.174 2.19-1.108 4.107-2.079m2.341-10.648.192-.046.66-.322c.363-.177.665-.327.67-.332.015-.014.279-.656.279-.677 0-.008-.014-.061-.032-.115-.017-.054-.055-.171-.083-.26l-.051-.162-.158-.082c-.087-.045-.24-.124-.341-.176-.101-.051-.253-.13-.339-.174-.085-.044-.242-.124-.348-.179-.105-.054-.242-.124-.302-.155-.061-.031-.225-.117-.366-.188l-.255-.131-.402-.113c-.222-.062-.407-.114-.412-.114-.004 0-.37.161-.812.357l-.805.357-.097.137-.098.137.093.048c.051.027.134.07.185.096.05.027.153.08.229.119.076.04.187.097.247.129.061.032.219.113.353.183s.305.157.38.197c.076.039.337.175.582.302s.448.234.452.238c.003.003.075.223.158.487s.152.485.154.491c.003.008.015.009.04.002.019-.004.122-.029.227-.054m-3.944-2.817c.06-.015.331-.129.92-.386.459-.199.837-.366.842-.371.005-.004-.017-.089-.054-.204l-.062-.197-.327-.16c-.179-.089-.824-.409-1.435-.713-.609-.303-1.467-.728-1.906-.946-.438-.218-1.054-.524-1.369-.681l-.571-.284-.176.04c-.096.023-.177.043-.181.047-.005.005-.035 1.352-.035 1.55v.053l.214.286.212.285 2.713 1.413.554.144c.305.08.559.145.565.145.005.001.049-.009.096-.021M8.63 5.303l.188-.044 1.149-.58c.632-.319 1.155-.587 1.163-.595.033-.032.485-.819.485-.843-.001-.013-.039-.302-.085-.642l-.085-.619-.075-.039-.075-.039-3.167 1.606-.177.22-.178.22.2.636.201.637.124.063c.068.034.128.063.134.063.005.001.094-.02.198-.044M6.352 19.344l.11-.024-.003-.148c-.003-.081-.01-.37-.017-.642l-.012-.495-.1-.32c-.056-.175-.103-.321-.105-.322-.003-.002-1.042-.508-1.695-.825-.171-.083-.314-.151-.318-.151s-.387.169-.85.374l-.842.374-.107.16c-.06.088-.108.163-.108.165 0 .003.212.11.47.238.257.128.838.416 1.289.639.451.224.866.429.921.456.056.026.337.166.626.31l.525.261.052-.012c.029-.008.102-.024.164-.038m9.109-2.025 3.193-1.6.188-.28.187-.282V8.802l-.186-.278-.186-.278-.265-.135c-.146-.074-1.587-.796-3.199-1.604l-2.935-1.471-.341.001h-.343L5.178 8.239l-.19.284-.191.284v6.346l.187.281.188.28 1.689.848c.929.466 2.365 1.187 3.192 1.602l1.503.754.356.001h.356zm-3.395-2.277c-.103-.018-.207-.101-.23-.184-.008-.029-.01-.137-.008-.379.002-.38.002-.372.072-.442.045-.044.101-.073.166-.085.032-.006.794-.008 2.197-.007l2.149.003.055.025c.064.03.117.077.145.131.019.035.02.044.02.394v.357l-.025.043c-.032.055-.089.103-.153.128l-.051.021-2.144.001c-1.209.001-2.166-.002-2.193-.006m-4.304-.426c-.517-.449-.521-.452-.545-.505-.039-.083-.033-.21.013-.28.012-.018.458-.412.992-.875.533-.462.99-.86 1.017-.885.115-.108.114-.207-.005-.321-.028-.027-.319-.282-.647-.566-.599-.519-.97-.84-1.212-1.052-.104-.091-.136-.123-.155-.161-.043-.089-.037-.212.013-.288.014-.02.198-.188.41-.372.446-.388.451-.391.592-.397.072-.004.101 0 .153.016.056.016.077.03.172.112.421.361 3.023 2.622 3.061 2.658.074.071.088.108.084.221-.003.082-.006.099-.028.136-.02.034-.369.341-1.581 1.393-.855.742-1.563 1.358-1.571 1.368-.123.142-.189.188-.269.188h-.045zm-5.549 1.855c.047-.029.242-.116.596-.265.289-.122.531-.227.538-.232.005-.006.105-.175.222-.378l.21-.366-.022-1.535c-.017-1.237-.022-1.917-.024-3.514V8.192c0-.005.088-.136.193-.291l.19-.282 2.7-1.319.292-.276c.161-.151.292-.278.292-.28 0-.01-.415-1.326-.423-1.341-.005-.011-.055-.018-.262-.036l-.254-.021-2.174 1.087L2.114 6.52l-.551.747v.092c0 .05.011.839.022 1.75.022 1.535.023 1.864.022 4.426l-.001 2.768.153.18.152.181.117-.074c.064-.041.148-.094.185-.119m20.069-.3c.061-.015.112-.029.114-.03.004-.004-.021-4.142-.025-4.145-.001-.001-.103-.063-.226-.138l-.224-.136-.635.126-.636.128-.034.056c-.02.031-.115.176-.211.321l-.175.266.059.88.059.879.909.909c.5.501.911.91.911.91.001 0 .052-.011.114-.026m-.951-5.026c.452-.108.824-.197.825-.199.002-.002.058-.107.124-.235l.12-.231.019-.744c.011-.409.017-.749.016-.754-.003-.006-.065-.06-.141-.121l-.136-.11-.621.248-.621.248-.269.217c-.148.12-.273.223-.278.229-.004.006-.058.124-.12.26-.071.159-.112.261-.112.28 0 .039.073.848.078.876.006.023.257.232.28.232.007 0 .384-.088.836-.196"/></svg>
