<svg xmlns="http://www.w3.org/2000/svg" viewBox="0 0 1171 205">
    <title>Catppuccin Logo Text</title>
    <path
        d="M-0.002,81.396c0,48 25.2,77.6 74,77.6c26.758,0 61,-11.666 61,-36.4c0,-10.4 -8.4,-18.8 -18.6,-18.8c-19.467,0 -15.721,25 -42.4,25c-18.2,0 -33.6,-14.2 -33.6,-49.2c0,-33.8 14.6,-48 33.6,-48c25.471,0 22.204,22.4 40.6,22.4c10,0 18.2,-8 18.2,-18.2c0,-24.1 -33.942,-34.4 -58.8,-34.4c-45.4,0 -74,32.6 -74,80Z" />
    <path
        d="M148.198,124.996c0,21.4 17,33.2 37.2,33.2c14.4,0 25.6,-4 34.2,-15.8c1.2,8.4 8.4,14.8 17.2,14.8c9.8,0 17.2,-8.195 17.2,-17.8l-0,-50.2c-0,-33.4 -19.2,-45.4 -50.6,-45.4c-19.108,0 -48.2,5.267 -48.2,24.4c0,9 7.2,14.6 16,14.6c12.292,0 14.8,-12.6 31.8,-12.6c14,0 15.2,7.8 15.2,19.4l-13.6,0c-24.8,0 -56.4,3.8 -56.4,35.4Zm36.4,-2.2c0,-11.8 12.8,-13.4 22,-13.4l11.8,0l0,1.8c0,12.8 -7.2,23.2 -20.8,23.2c-7.2,0 -13,-4 -13,-11.6Z" />
    <path
        d="M267.798,58.996c-0,6.6 5.4,12.2 12.2,12.2l5.6,0l-0.2,47.8c-0.2,25.8 8.8,39 35,39c12.675,0 27.2,-0.4 27.2,-15.2c-0,-7 -6,-9.6 -14.4,-12c-4.492,-1.283 -10.8,-3.6 -10.8,-15l-0,-44.6l11,0c6.8,0 12.2,-5.6 12.2,-12.4c-0,-6.6 -5.4,-12.2 -12.2,-12.2l-11.8,0l-0,-13.8c-0,-9.4 -7.6,-17 -17,-17c-9,0 -16.6,7.2 -17,16l-0.8,14.8l-6.8,0c-6.8,0 -12.2,5.6 -12.2,12.4Z" />
    <path
        d="M364.998,183.196c-0,10.2 8.4,18.6 18.6,18.6c10.2,0 18.6,-8.4 18.6,-18.6l-0,-35.4c4,3.6 12.4,10.2 26.8,10.2c28.8,0 49.8,-22.2 49.8,-59c-0,-29.8 -14.2,-54.6 -44,-54.6c-18.8,0 -28,8.4 -35.6,18.8l-0,-1.2c-0,-9.4 -7.6,-17 -17.2,-17c-9.4,0 -17,7.6 -17,17l-0,121.2Zm36.2,-82.2c-0,-21.4 9,-30.6 20.8,-30.6c10.2,0 19.4,8 19.4,30.6c-0,22.6 -9.4,32 -20.2,32c-10.8,0 -20,-8.2 -20,-32Z" />
    <path
        d="M499.398,183.196c-0,10.2 8.4,18.6 18.6,18.6c10.2,0 18.6,-8.4 18.6,-18.6l-0,-35.4c4,3.6 12.4,10.2 26.8,10.2c28.8,0 49.8,-22.2 49.8,-59c-0,-29.8 -14.2,-54.6 -44,-54.6c-18.8,0 -28,8.4 -35.6,18.8l-0,-1.2c-0,-9.4 -7.6,-17 -17.2,-17c-9.4,0 -17,7.6 -17,17l-0,121.2Zm36.2,-82.2c-0,-21.4 9,-30.6 20.8,-30.6c10.2,0 19.4,8 19.4,30.6c-0,22.6 -9.4,32 -20.2,32c-10.8,0 -20,-8.2 -20,-32Z" />
    <path
        d="M632.798,115.796c-0,23.6 9.4,42.4 38.4,42.4c17.799,0 27.799,-10.6 33.199,-22.4l0,4.2c0,9.4 7.8,17.2 17.2,17.2c9.6,0 17.4,-7.8 17.4,-17.2l0,-76.4c0,-10.2 -8.4,-18.6 -18.6,-18.6c-10.2,0 -18.6,8.4 -18.6,18.6l0,42.4c0,16.2 -6.8,24.2 -17,24.2c-5.799,0 -14.799,-3.4 -14.799,-20.2l-0,-46.4c-0,-10.2 -8.4,-18.6 -18.6,-18.6c-10.2,0 -18.6,8.4 -18.6,18.6l-0,52.2Z" />
    <path
        d="M758.997,101.396c0,34.8 18,57.2 56.2,57.2c20.779,0 46,-7.479 46,-26.6c0,-9.6 -5.8,-15.2 -15.2,-15.2c-14.129,0 -14.429,15.2 -30.6,15.2c-10.6,0 -19.2,-8.4 -19.2,-30.8c0,-21.6 8.2,-30.8 19.2,-30.8c16.071,0 15.68,13.4 29.6,13.4c9,0 14.4,-5.2 14.4,-14.4c0,-18.704 -23.55,-25.6 -42.6,-25.6c-37.8,0 -57.8,25.6 -57.8,57.6Z" />
    <path
        d="M874.797,101.396c0,34.8 18,57.2 56.2,57.2c20.779,0 46,-7.479 46,-26.6c0,-9.6 -5.8,-15.2 -15.2,-15.2c-14.129,0 -14.429,15.2 -30.6,15.2c-10.6,0 -19.2,-8.4 -19.2,-30.8c0,-21.6 8.2,-30.8 19.2,-30.8c16.071,0 15.679,13.4 29.6,13.4c9,0 14.4,-5.2 14.4,-14.4c0,-18.704 -23.55,-25.6 -42.6,-25.6c-37.8,0 -57.8,25.6 -57.8,57.6Z" />
    <path
        d="M994.997,15.596c0,8.6 7,15.6 15.6,15.6l9.2,0c8.6,0 15.6,-7 15.6,-15.6c0,-8.6 -7,-15.6 -15.6,-15.6l-9.2,0c-8.6,0 -15.6,7 -15.6,15.6Zm1.6,123c0,10.2 8.4,18.6 18.6,18.6c10.2,0 18.6,-8.4 18.6,-18.6l0,-75c0,-10.2 -8.4,-18.6 -18.6,-18.6c-10.2,0 -18.6,8.4 -18.6,18.6l0,75Z" />
    <path
        d="M1059.8,138.596c0,10.2 8.4,18.6 18.6,18.6c10.2,0 18.6,-8.4 18.6,-18.6l0,-41.4c0,-20.8 10.4,-24.6 18,-24.6c6.4,0 15.8,3.2 15.8,20l0,46c0,10.2 8.4,18.6 18.6,18.6c10.2,0 18.6,-8.4 18.6,-18.6l-0,-51.8c-0,-25 -10.6,-42.4 -38.4,-42.4c-18.6,0 -29.8,10 -35.2,20.6l0,-2.8c0,-9.4 -7.8,-17.2 -17.4,-17.2c-9.4,0 -17.2,7.8 -17.2,17.2l0,76.4Z" />
</svg>