<?xml version="1.0" encoding="UTF-8" standalone="no"?><!DOCTYPE svg PUBLIC "-//W3C//DTD SVG 1.1//EN" "http://www.w3.org/Graphics/SVG/1.1/DTD/svg11.dtd"><svg width="100%" height="100%" viewBox="0 0 24 24" version="1.1" xmlns="http://www.w3.org/2000/svg" xmlns:xlink="http://www.w3.org/1999/xlink" xml:space="preserve" xmlns:serif="http://www.serif.com/" style="fill-rule:evenodd;clip-rule:evenodd;stroke-linejoin:round;stroke-miterlimit:2;"><path id="Anki" d="M15.844,22.626c-0.179,0.174 -0.417,0.279 -0.711,0.301c-0.271,0.022 -0.612,-0.035 -0.989,-0.159c-0.686,-0.223 -1.538,-0.67 -2.257,-0.974c-0.342,-0.145 -0.632,-0.28 -0.828,-0.253c-0.197,0.027 -0.44,0.236 -0.731,0.467c-0.611,0.486 -1.31,1.145 -1.91,1.545c-0.331,0.221 -0.644,0.368 -0.91,0.421c-0.29,0.057 -0.547,0.019 -0.767,-0.099c-0.22,-0.118 -0.395,-0.311 -0.507,-0.584c-0.103,-0.25 -0.154,-0.593 -0.153,-0.99c0,-0.722 0.162,-1.669 0.229,-2.447c0.031,-0.37 0.07,-0.688 -0.016,-0.866c-0.086,-0.179 -0.36,-0.346 -0.669,-0.55c-0.651,-0.431 -1.495,-0.892 -2.06,-1.34c-0.313,-0.246 -0.549,-0.499 -0.681,-0.735c-0.144,-0.258 -0.188,-0.514 -0.144,-0.76c0.044,-0.246 0.174,-0.471 0.399,-0.662c0.206,-0.176 0.517,-0.33 0.894,-0.453c0.687,-0.221 1.639,-0.36 2.398,-0.538c0.363,-0.084 0.677,-0.145 0.82,-0.282c0.143,-0.137 0.216,-0.449 0.316,-0.807c0.209,-0.752 0.387,-1.696 0.637,-2.373c0.138,-0.373 0.305,-0.676 0.489,-0.875c0.2,-0.217 0.431,-0.337 0.678,-0.372c0.247,-0.033 0.502,0.021 0.754,0.176c0.23,0.142 0.472,0.389 0.706,0.71c0.424,0.584 0.849,1.447 1.252,2.114c0.192,0.319 0.348,0.599 0.522,0.693c0.175,0.094 0.494,0.067 0.866,0.051c0.779,-0.034 1.733,-0.157 2.454,-0.127c0.397,0.015 0.737,0.081 0.983,0.194c0.267,0.125 0.454,0.306 0.562,0.531c0.109,0.224 0.136,0.483 0.067,0.771c-0.064,0.263 -0.224,0.569 -0.458,0.891c-0.424,0.583 -1.113,1.254 -1.624,1.844c-0.243,0.281 -0.461,0.515 -0.496,0.71c-0.036,0.196 0.088,0.491 0.218,0.839c0.273,0.731 0.685,1.601 0.88,2.295c0.107,0.383 0.15,0.726 0.118,0.995c-0.035,0.293 -0.15,0.526 -0.331,0.698Zm-1.539,-18.929c-0.018,-0.056 -0.069,-0.225 -0.122,-0.346c-0.169,-0.387 -0.417,-0.845 -0.544,-1.215c-0.165,-0.484 -0.099,-0.881 0.102,-1.096c0.2,-0.215 0.592,-0.309 1.085,-0.178c0.378,0.1 0.853,0.316 1.251,0.459c0.123,0.044 0.297,0.083 0.353,0.097c0.048,-0.034 0.193,-0.135 0.292,-0.223c0.316,-0.281 0.675,-0.658 0.987,-0.893c0.409,-0.306 0.807,-0.366 1.073,-0.241c0.268,0.125 0.478,0.468 0.505,0.977c0.022,0.391 -0.036,0.908 -0.049,1.331c-0.004,0.132 0.012,0.308 0.017,0.366c0.046,0.035 0.188,0.141 0.301,0.208c0.365,0.213 0.835,0.439 1.154,0.663c0.419,0.294 0.598,0.655 0.562,0.947c-0.036,0.292 -0.297,0.598 -0.774,0.782c-0.364,0.14 -0.875,0.246 -1.28,0.364c-0.127,0.037 -0.29,0.106 -0.343,0.13c-0.019,0.054 -0.077,0.221 -0.105,0.351c-0.09,0.412 -0.159,0.929 -0.274,1.302c-0.151,0.488 -0.438,0.77 -0.727,0.826c-0.288,0.056 -0.661,-0.098 -0.983,-0.494c-0.247,-0.303 -0.504,-0.756 -0.742,-1.105c-0.074,-0.109 -0.191,-0.242 -0.228,-0.286c-0.059,-0.001 -0.236,-0.004 -0.367,0.008c-0.42,0.042 -0.933,0.137 -1.324,0.143c-0.51,0.007 -0.868,-0.179 -1.01,-0.436c-0.142,-0.257 -0.111,-0.659 0.166,-1.088c0.212,-0.328 0.563,-0.713 0.822,-1.048c0.08,-0.104 0.172,-0.256 0.202,-0.305Z"/></svg>