<?xml version="1.0" encoding="UTF-8" standalone="no"?><!DOCTYPE svg PUBLIC "-//W3C//DTD SVG 1.1//EN" "http://www.w3.org/Graphics/SVG/1.1/DTD/svg11.dtd"><svg width="100%" height="100%" viewBox="0 0 24 24" version="1.1" xmlns="http://www.w3.org/2000/svg" xmlns:xlink="http://www.w3.org/1999/xlink" xml:space="preserve" xmlns:serif="http://www.serif.com/" style="fill-rule:evenodd;clip-rule:evenodd;stroke-linejoin:round;stroke-miterlimit:2;"><path id="Bat" d="M3.127,12.933c-1.378,-0.808 -2.235,-1.309 -2.964,-1.736c-0.101,-0.059 -0.163,-0.167 -0.163,-0.284c-0,-0.117 0.062,-0.225 0.163,-0.284l8.08,-4.735c0.051,-0.03 0.114,-0.03 0.166,-0.001c0.051,0.03 0.083,0.084 0.083,0.144l0,3.509c0,0.199 -0.105,0.382 -0.277,0.482c-0.286,0.168 -1.083,0.627 -1.521,0.881c0.278,0.163 0.681,0.4 0.793,0.465c0.331,0.194 1.213,0.704 1.625,0.942c0.045,0.026 0.073,0.074 0.073,0.126c-0,0.052 -0.028,0.1 -0.073,0.126c-0.685,0.4 -2.787,1.625 -3.244,1.892c-0.055,0.032 -0.122,0.031 -0.176,-0.001c-0.343,-0.206 -1.592,-0.956 -1.898,-1.136c-0.228,-0.133 -0.48,-0.281 -0.667,-0.39Zm10.637,-4.659l0,4.283c0,0.088 0.047,0.17 0.124,0.213c0.076,0.044 0.171,0.044 0.247,-0.001c0.323,-0.19 1.727,-1.013 3.164,-1.856c-0.403,-0.236 -1.26,-0.736 -1.514,-0.885c-0.172,-0.1 -0.277,-0.283 -0.277,-0.482l0,-3.509c0,-0.06 0.032,-0.114 0.083,-0.144c0.052,-0.029 0.115,-0.029 0.166,0.001c0.745,0.436 3.028,1.774 5.05,2.959c-0,-0 0,0 0.002,0.001c0.023,0.014 0.214,0.125 0.214,0.125c0.603,0.354 2.305,1.351 2.814,1.65c0.101,0.059 0.163,0.167 0.163,0.284c-0,0.117 -0.062,0.225 -0.163,0.284c-2.281,1.336 -11.836,6.932 -11.836,6.932l-5.363,-3.105l3.294,-1.905c0.315,-0.181 0.304,-0.474 0.304,-0.562l0,-4.208c0,-0.066 0.042,-0.14 0.092,-0.163c0.06,-0.027 0.127,-0.037 0.186,-0.006c0.185,0.096 0.792,0.378 1.432,0.672c0.515,-0.248 1.433,-0.691 1.54,-0.746c0.059,-0.031 0.13,-0.029 0.187,0.006c0.056,0.034 0.091,0.096 0.091,0.162Z"/></svg>