<?xml version="1.0" encoding="UTF-8" standalone="no"?><!DOCTYPE svg PUBLIC "-//W3C//DTD SVG 1.1//EN" "http://www.w3.org/Graphics/SVG/1.1/DTD/svg11.dtd"><svg width="100%" height="100%" viewBox="0 0 24 24" version="1.1" xmlns="http://www.w3.org/2000/svg" xmlns:xlink="http://www.w3.org/1999/xlink" xml:space="preserve" xmlns:serif="http://www.serif.com/" style="fill-rule:evenodd;clip-rule:evenodd;stroke-linejoin:round;stroke-miterlimit:2;"><path id="Folders" d="M0,21.9l0,-19.8c0,-0.665 0.535,-1.2 1.2,-1.2l6.6,-0c1.8,-0 2.4,2.4 4.2,2.4l10.8,-0c0.665,-0 1.2,0.535 1.2,1.2l0,17.4c0,0.662 -0.538,1.2 -1.2,1.2l-21.6,-0c-0.662,-0 -1.2,-0.538 -1.2,-1.2Zm21.6,-14.4l0,-0.6c0,-0.662 -0.538,-1.2 -1.2,-1.2l-16.8,-0c-0.662,-0 -1.2,0.538 -1.2,1.2l-0,0.6l19.2,-0Z"/></svg>