<?xml version="1.0" encoding="UTF-8" standalone="no"?><!DOCTYPE svg PUBLIC "-//W3C//DTD SVG 1.1//EN" "http://www.w3.org/Graphics/SVG/1.1/DTD/svg11.dtd"><svg width="100%" height="100%" viewBox="0 0 24 24" version="1.1" xmlns="http://www.w3.org/2000/svg" xmlns:xlink="http://www.w3.org/1999/xlink" xml:space="preserve" xmlns:serif="http://www.serif.com/" style="fill-rule:evenodd;clip-rule:evenodd;stroke-linejoin:round;stroke-miterlimit:2;"><path id="GBoard" d="M19.207,8.89l0.915,0c2.084,0 3.777,1.693 3.777,3.778l0,7.555c0,2.084 -1.693,3.777 -3.777,3.777l-16.244,0c-2.084,0 -3.777,-1.693 -3.777,-3.777l-0,-7.555c-0,-2.085 1.693,-3.778 3.777,-3.778l0.915,0l0,-5.186c0,-2.044 1.66,-3.704 3.704,-3.704l7.006,0c2.044,0 3.704,1.66 3.704,3.704l-0,5.186Zm-11.315,0.801c0.823,1.441 2.355,2.41 4.108,2.41c1.753,-0 3.285,-0.969 4.108,-2.41c0.145,-0.253 0.267,-0.521 0.366,-0.801c0.178,-0.507 0.274,-1.054 0.274,-1.624c0,-0.284 -0.024,-0.564 -0.07,-0.835c-0,0 -3.469,0.02 -4.573,0.02c0,-0 0.012,1.035 0.012,1.767c2.51,-0 2.624,0.003 2.624,0.003c-0.08,0.238 -0.19,0.463 -0.324,0.669c-0.204,0.315 -0.466,0.587 -0.77,0.801c-0.467,0.331 -1.035,0.524 -1.647,0.524c-0.612,0 -1.18,-0.193 -1.647,-0.524c-0.304,-0.214 -0.566,-0.486 -0.77,-0.801c-0.303,-0.465 -0.479,-1.024 -0.479,-1.624c-0,-1.627 1.298,-2.948 2.896,-2.948c0.771,-0 1.472,0.307 1.992,0.809l1.321,-1.322c-0.855,-0.849 -2.025,-1.373 -3.313,-1.373c-2.621,0 -4.748,2.166 -4.748,4.834c-0,0.57 0.096,1.117 0.274,1.624c0.099,0.28 0.221,0.548 0.366,0.801Zm9.044,6.411c-0,-0.124 -0.101,-0.225 -0.226,-0.225l-1.756,-0c-0.125,-0 -0.226,0.101 -0.226,0.225l0,1.757c0,0.124 0.101,0.226 0.226,0.226l1.756,-0c0.125,-0 0.226,-0.102 0.226,-0.226l-0,-1.757Zm-11.36,0c-0,-0.124 -0.101,-0.225 -0.226,-0.225l-1.756,-0c-0.125,-0 -0.226,0.101 -0.226,0.225l0,1.757c0,0.124 0.101,0.226 0.226,0.226l1.756,-0c0.125,-0 0.226,-0.102 0.226,-0.226l-0,-1.757Zm3.187,-1.783l-1.608,-1.322l-0,1.097c-0,0.124 0.101,0.225 0.225,0.225l1.383,0Zm11.869,-1.982c-0,-0.124 -0.101,-0.225 -0.226,-0.225l-1.756,-0c-0.125,-0 -0.226,0.101 -0.226,0.225l0,1.757c0,0.124 0.101,0.225 0.226,0.225l1.756,0c0.125,0 0.226,-0.101 0.226,-0.225l-0,-1.757Zm-11.27,3.765c0,-0.124 -0.101,-0.225 -0.225,-0.225l-1.757,-0c-0.124,-0 -0.225,0.101 -0.225,0.225l-0,1.757c-0,0.124 0.101,0.226 0.225,0.226l1.757,-0c0.124,-0 0.225,-0.102 0.225,-0.226l0,-1.757Zm-3.786,-3.765c-0,-0.124 -0.101,-0.225 -0.226,-0.225l-1.756,-0c-0.125,-0 -0.226,0.101 -0.226,0.225l0,1.757c0,0.124 0.101,0.225 0.226,0.225l1.756,0c0.125,0 0.226,-0.101 0.226,-0.225l-0,-1.757Zm15.056,3.765c-0,-0.124 -0.101,-0.225 -0.226,-0.225l-1.756,-0c-0.125,-0 -0.226,0.101 -0.226,0.225l0,1.757c0,0.124 0.101,0.226 0.226,0.226l1.756,-0c0.125,-0 0.226,-0.102 0.226,-0.226l-0,-1.757Zm-3.696,-3.105c-0.499,0.41 -1.061,0.868 -1.623,1.322l1.397,0c0.125,0 0.226,-0.101 0.226,-0.225l-0,-1.097Zm-3.79,3.067c-0.683,0.547 -1.146,0.917 -1.146,0.917l-1.058,-0.871l-0,1.749c-0,0.124 0.101,0.226 0.225,0.226l1.757,-0c0.124,-0 0.225,-0.102 0.225,-0.226l0,-1.757c0,-0.013 -0.001,-0.025 -0.003,-0.038Z"/></svg>