<?xml version="1.0" encoding="UTF-8" standalone="no"?><!DOCTYPE svg PUBLIC "-//W3C//DTD SVG 1.1//EN" "http://www.w3.org/Graphics/SVG/1.1/DTD/svg11.dtd"><svg width="100%" height="100%" viewBox="0 0 24 24" version="1.1" xmlns="http://www.w3.org/2000/svg" xmlns:xlink="http://www.w3.org/1999/xlink" xml:space="preserve" xmlns:serif="http://www.serif.com/" style="fill-rule:evenodd;clip-rule:evenodd;stroke-linejoin:round;stroke-miterlimit:2;"><path id="LXQT" d="M10.535,7.233c-0.537,-0.581 -0.89,-1.328 -0.999,-2.111c-0.109,-0.783 0.027,-1.598 0.384,-2.304c0.358,-0.706 0.934,-1.297 1.63,-1.674c0.696,-0.376 1.507,-0.534 2.294,-0.447c1.265,0.141 2.438,0.94 3.031,2.066l7.125,0.981l-8.121,0c-0.507,-0.647 -1.272,-1.088 -2.088,-1.199c-0.582,-0.081 -1.186,0.003 -1.724,0.239c-0.538,0.236 -1.009,0.623 -1.344,1.106c-0.335,0.483 -0.534,1.059 -0.566,1.646c-0.033,0.586 0.099,1.18 0.378,1.697Zm-7.6,2.533c-0.561,-0.321 -1.069,-0.733 -1.494,-1.22c-0.76,-0.87 -1.253,-1.971 -1.397,-3.118c-0.143,-1.147 0.064,-2.335 0.586,-3.366l10.907,7.835l-8.997,-5.043c-0.273,0.814 -0.305,1.708 -0.09,2.54c0.188,0.726 0.561,1.403 1.076,1.949c0.37,0.393 0.813,0.717 1.299,0.954l6.106,1.717l-7.544,-1.234c0.074,0.725 0.345,1.428 0.778,2.015c0.765,1.039 2.044,1.68 3.335,1.672c-1.289,0.346 -2.717,0.136 -3.852,-0.567c-0.764,-0.473 -1.394,-1.162 -1.798,-1.965c-0.403,-0.804 -0.579,-1.72 -0.502,-2.615l1.587,0.446Zm12.367,-3.766c-0.008,0.116 -0.013,0.232 -0.012,0.348c0.007,1.437 0.673,2.779 1.331,4.058c0.658,1.279 1.336,2.61 1.373,4.048c0.031,1.195 -0.402,2.383 -1.128,3.333c-0.727,0.95 -1.734,1.67 -2.838,2.131c-1.541,0.645 -3.285,0.795 -4.914,0.424l-1.257,2.984l-0,-4.181c1.528,0.338 3.159,0.199 4.608,-0.391c0.88,-0.36 1.698,-0.887 2.34,-1.587c0.642,-0.701 1.1,-1.58 1.24,-2.519c0.188,-1.258 -0.191,-2.522 -0.564,-3.738c-0.372,-1.216 -0.745,-2.485 -0.545,-3.741c0.064,-0.404 0.187,-0.799 0.366,-1.169Z"/></svg>