<?xml version="1.0" encoding="UTF-8" standalone="no"?><!DOCTYPE svg PUBLIC "-//W3C//DTD SVG 1.1//EN" "http://www.w3.org/Graphics/SVG/1.1/DTD/svg11.dtd"><svg width="100%" height="100%" viewBox="0 0 24 24" version="1.1" xmlns="http://www.w3.org/2000/svg" xmlns:xlink="http://www.w3.org/1999/xlink" xml:space="preserve" xmlns:serif="http://www.serif.com/" style="fill-rule:evenodd;clip-rule:evenodd;stroke-linejoin:round;stroke-miterlimit:2;"><path id="ZelliJ" d="M6.045,21.017c-3.294,-1.638 -5.99,-2.98 -5.993,-2.981c-0.002,-0.004 -0.055,-11.99 -0.052,-11.997c0.001,-0.004 11.946,-6.034 11.952,-6.034c0.008,0 11.987,5.953 11.996,5.96c0.002,0.004 0.055,11.988 0.052,11.997c-0.002,0.007 -11.947,6.034 -11.956,6.033c-0.006,-0.001 -2.706,-1.341 -5.999,-2.978Zm5.859,1.063c0.131,-0.031 0.243,-0.06 0.248,-0.066c0.032,-0.034 2.185,-2.832 2.182,-2.836c-0.003,-0.001 -0.068,0.011 -0.145,0.031l-0.141,0.034l-0.806,0.405c-0.745,0.376 -0.81,0.407 -0.853,0.407c-0.024,0 -0.289,-0.03 -0.587,-0.067l-0.542,-0.067l-0.567,-0.287c-0.312,-0.158 -0.686,-0.348 -0.833,-0.422c-1.251,-0.636 -2.422,-1.228 -2.429,-1.228c-0.005,0.001 -0.049,0.039 -0.098,0.086l-0.089,0.084l0.045,0.715l0.046,0.714l0.07,0.227l0.071,0.225l1.004,0.507c0.553,0.278 1.046,0.528 1.096,0.553c0.051,0.027 0.49,0.249 0.976,0.493c0.487,0.245 0.931,0.47 0.989,0.5c0.058,0.03 0.11,0.053 0.114,0.051c0.006,-0.002 0.118,-0.028 0.249,-0.059Zm6.346,-2.813l3.485,-1.764l0.151,-0.228l0.15,-0.228l-0.062,-0.062c-0.035,-0.033 -0.337,-0.324 -0.673,-0.646c-0.335,-0.321 -0.642,-0.616 -0.683,-0.657l-0.074,-0.071l-0.158,-0.042c-0.088,-0.023 -0.164,-0.04 -0.17,-0.038c-0.006,0.003 -0.019,0.084 -0.032,0.205c-0.012,0.11 -0.026,0.208 -0.029,0.219c-0.005,0.012 -0.2,0.144 -0.533,0.359l-0.525,0.339l-1.122,0.534l-1.123,0.535l-0.403,0.272c-0.222,0.15 -0.414,0.284 -0.427,0.299c-0.013,0.014 -0.58,0.729 -1.259,1.588c-0.68,0.86 -1.248,1.577 -1.262,1.596l-0.027,0.033l0.021,0.067c0.011,0.038 0.022,0.071 0.023,0.076c0.002,0.003 0.284,-0.135 0.625,-0.307c0.341,-0.174 2.19,-1.108 4.107,-2.079Zm2.341,-10.648l0.192,-0.046l0.66,-0.322c0.363,-0.177 0.665,-0.327 0.67,-0.332c0.015,-0.014 0.279,-0.656 0.279,-0.677c-0,-0.008 -0.014,-0.061 -0.032,-0.115c-0.017,-0.054 -0.055,-0.171 -0.083,-0.26l-0.051,-0.162l-0.158,-0.082c-0.087,-0.045 -0.24,-0.124 -0.341,-0.176c-0.101,-0.051 -0.253,-0.13 -0.339,-0.174c-0.085,-0.044 -0.242,-0.124 -0.348,-0.179c-0.105,-0.054 -0.242,-0.124 -0.302,-0.155c-0.061,-0.031 -0.225,-0.117 -0.366,-0.188l-0.255,-0.131l-0.402,-0.113c-0.222,-0.062 -0.407,-0.114 -0.412,-0.114c-0.004,0 -0.37,0.161 -0.812,0.357l-0.805,0.357l-0.097,0.137l-0.098,0.137l0.093,0.048c0.051,0.027 0.134,0.07 0.185,0.096c0.05,0.027 0.153,0.08 0.229,0.119c0.076,0.04 0.187,0.097 0.247,0.129c0.061,0.032 0.219,0.113 0.353,0.183c0.134,0.07 0.305,0.157 0.38,0.197c0.076,0.039 0.337,0.175 0.582,0.302c0.245,0.127 0.448,0.234 0.452,0.238c0.003,0.003 0.075,0.223 0.158,0.487c0.083,0.264 0.152,0.485 0.154,0.491c0.003,0.008 0.015,0.009 0.04,0.002c0.019,-0.004 0.122,-0.029 0.227,-0.054Zm-3.944,-2.817c0.06,-0.015 0.331,-0.129 0.92,-0.386c0.459,-0.199 0.837,-0.366 0.842,-0.371c0.005,-0.004 -0.017,-0.089 -0.054,-0.204l-0.062,-0.197l-0.327,-0.16c-0.179,-0.089 -0.824,-0.409 -1.435,-0.713c-0.609,-0.303 -1.467,-0.728 -1.906,-0.946c-0.438,-0.218 -1.054,-0.524 -1.369,-0.681l-0.571,-0.284l-0.176,0.04c-0.096,0.023 -0.177,0.043 -0.181,0.047c-0.005,0.005 -0.035,1.352 -0.035,1.55l0,0.053l0.214,0.286l0.212,0.285l2.713,1.413l0.554,0.144c0.305,0.08 0.559,0.145 0.565,0.145c0.005,0.001 0.049,-0.009 0.096,-0.021Zm-8.017,-0.499l0.188,-0.044l1.149,-0.58c0.632,-0.319 1.155,-0.587 1.163,-0.595c0.033,-0.032 0.485,-0.819 0.485,-0.843c-0.001,-0.013 -0.039,-0.302 -0.085,-0.642l-0.085,-0.619l-0.075,-0.039l-0.075,-0.039l-3.167,1.606l-0.177,0.22l-0.178,0.22l0.2,0.636l0.201,0.637l0.124,0.063c0.068,0.034 0.128,0.063 0.134,0.063c0.005,0.001 0.094,-0.02 0.198,-0.044Zm-2.278,14.041l0.11,-0.024l-0.003,-0.148c-0.003,-0.081 -0.01,-0.37 -0.017,-0.642l-0.012,-0.495l-0.1,-0.32c-0.056,-0.175 -0.103,-0.321 -0.105,-0.322c-0.003,-0.002 -1.042,-0.508 -1.695,-0.825c-0.171,-0.083 -0.314,-0.151 -0.318,-0.151c-0.004,0 -0.387,0.169 -0.85,0.374l-0.842,0.374l-0.107,0.16c-0.06,0.088 -0.108,0.163 -0.108,0.165c-0,0.003 0.212,0.11 0.47,0.238c0.257,0.128 0.838,0.416 1.289,0.639c0.451,0.224 0.866,0.429 0.921,0.456c0.056,0.026 0.337,0.166 0.626,0.31l0.525,0.261l0.052,-0.012c0.029,-0.008 0.102,-0.024 0.164,-0.038Zm9.109,-2.025l3.193,-1.6l0.188,-0.28l0.187,-0.282l-0,-6.355l-0.186,-0.278l-0.186,-0.278l-0.265,-0.135c-0.146,-0.074 -1.587,-0.796 -3.199,-1.604l-2.935,-1.471l-0.341,0.001l-0.343,-0l-6.396,3.202l-0.19,0.284l-0.191,0.284l0,6.346l0.187,0.281l0.188,0.28l1.689,0.848c0.929,0.466 2.365,1.187 3.192,1.602l1.503,0.754l0.356,0.001l0.356,0l3.193,-1.6Zm-3.395,-2.277c-0.103,-0.018 -0.207,-0.101 -0.23,-0.184c-0.008,-0.029 -0.01,-0.137 -0.008,-0.379c0.002,-0.38 0.002,-0.372 0.072,-0.442c0.045,-0.044 0.101,-0.073 0.166,-0.085c0.032,-0.006 0.794,-0.008 2.197,-0.007l2.149,0.003l0.055,0.025c0.064,0.03 0.117,0.077 0.145,0.131c0.019,0.035 0.02,0.044 0.02,0.394l0,0.357l-0.025,0.043c-0.032,0.055 -0.089,0.103 -0.153,0.128l-0.051,0.021l-2.144,0.001c-1.209,0.001 -2.166,-0.002 -2.193,-0.006Zm-4.304,-0.426c-0.517,-0.449 -0.521,-0.452 -0.545,-0.505c-0.039,-0.083 -0.033,-0.21 0.013,-0.28c0.012,-0.018 0.458,-0.412 0.992,-0.875c0.533,-0.462 0.99,-0.86 1.017,-0.885c0.115,-0.108 0.114,-0.207 -0.005,-0.321c-0.028,-0.027 -0.319,-0.282 -0.647,-0.566c-0.599,-0.519 -0.97,-0.84 -1.212,-1.052c-0.104,-0.091 -0.136,-0.123 -0.155,-0.161c-0.043,-0.089 -0.037,-0.212 0.013,-0.288c0.014,-0.02 0.198,-0.188 0.41,-0.372c0.446,-0.388 0.451,-0.391 0.592,-0.397c0.072,-0.004 0.101,0 0.153,0.016c0.056,0.016 0.077,0.03 0.172,0.112c0.421,0.361 3.023,2.622 3.061,2.658c0.074,0.071 0.088,0.108 0.084,0.221c-0.003,0.082 -0.006,0.099 -0.028,0.136c-0.02,0.034 -0.369,0.341 -1.581,1.393c-0.855,0.742 -1.563,1.358 -1.571,1.368c-0.123,0.142 -0.189,0.188 -0.269,0.188l-0.045,0l-0.449,-0.39Zm-5.549,1.855c0.047,-0.029 0.242,-0.116 0.596,-0.265c0.289,-0.122 0.531,-0.227 0.538,-0.232c0.005,-0.006 0.105,-0.175 0.222,-0.378l0.21,-0.366l-0.022,-1.535c-0.017,-1.237 -0.022,-1.917 -0.024,-3.514c-0,-1.088 -0,-1.983 0,-1.989c0,-0.005 0.088,-0.136 0.193,-0.291l0.19,-0.282l2.7,-1.319l0.292,-0.276c0.161,-0.151 0.292,-0.278 0.292,-0.28c-0,-0.01 -0.415,-1.326 -0.423,-1.341c-0.005,-0.011 -0.055,-0.018 -0.262,-0.036l-0.254,-0.021l-2.174,1.087l-2.173,1.087l-0.551,0.747l-0,0.092c-0,0.05 0.011,0.839 0.022,1.75c0.022,1.535 0.023,1.864 0.022,4.426l-0.001,2.768l0.153,0.18l0.152,0.181l0.117,-0.074c0.064,-0.041 0.148,-0.094 0.185,-0.119Zm20.069,-0.3c0.061,-0.015 0.112,-0.029 0.114,-0.03c0.004,-0.004 -0.021,-4.142 -0.025,-4.145c-0.001,-0.001 -0.103,-0.063 -0.226,-0.138l-0.224,-0.136l-0.635,0.126l-0.636,0.128l-0.034,0.056c-0.02,0.031 -0.115,0.176 -0.211,0.321l-0.175,0.266l0.059,0.88l0.059,0.879l0.909,0.909c0.5,0.501 0.911,0.91 0.911,0.91c0.001,0 0.052,-0.011 0.114,-0.026Zm-0.951,-5.026c0.452,-0.108 0.824,-0.197 0.825,-0.199c0.002,-0.002 0.058,-0.107 0.124,-0.235l0.12,-0.231l0.019,-0.744c0.011,-0.409 0.017,-0.749 0.016,-0.754c-0.003,-0.006 -0.065,-0.06 -0.141,-0.121l-0.136,-0.11l-0.621,0.248l-0.621,0.248l-0.269,0.217c-0.148,0.12 -0.273,0.223 -0.278,0.229c-0.004,0.006 -0.058,0.124 -0.12,0.26c-0.071,0.159 -0.112,0.261 -0.112,0.28c0,0.039 0.073,0.848 0.078,0.876c0.006,0.023 0.257,0.232 0.28,0.232c0.007,-0 0.384,-0.088 0.836,-0.196Z" style="fill:#080317;"/></svg>