<?xml version="1.0" encoding="UTF-8" standalone="no"?>
<!DOCTYPE svg PUBLIC "-//W3C//DTD SVG 1.1//EN" "http://www.w3.org/Graphics/SVG/1.1/DTD/svg11.dtd">
<svg width="100%" height="100%" viewBox="0 0 457 457" version="1.1" xmlns="http://www.w3.org/2000/svg" xmlns:xlink="http://www.w3.org/1999/xlink" xml:space="preserve" xmlns:serif="http://www.serif.com/" style="fill-rule:evenodd;clip-rule:evenodd;stroke-linejoin:round;stroke-miterlimit:2;">
    <path d="M119.488,428.879C48.348,390.227 0,314.823 0,228.216C0,102.26 102.26,0 228.216,0C354.172,0 456.432,102.26 456.432,228.216C456.432,318.01 404.461,395.761 328.983,433.004C330.374,410.699 320.357,351.121 320.357,351.121C451.114,252.127 344.065,152.631 344.065,152.631C346.03,147.732 349.8,84.882 332.297,77.325C314.794,69.768 271.207,113.127 271.207,113.127C208.817,98.822 169.174,117.516 169.174,117.516C158.657,104.486 109.063,73.993 94.309,86.875C79.556,99.756 97.622,170.59 97.622,170.59C22.084,306.16 135.125,358.171 135.125,358.171C131.483,365.016 123.437,407.282 119.488,428.879ZM237.952,356.508C237.952,356.508 261.36,362.836 268.578,370.302C268.578,370.302 282.484,355.972 288.699,357.997C294.915,360.022 293.341,390.608 290.247,390.465C287.153,390.323 271.774,384.64 269.876,382.533C269.876,382.533 257.611,399.404 243.994,399.361C243.994,399.361 229.254,382.774 237.952,356.508ZM238.214,264.087C238.214,264.087 261.833,278.683 274.659,258.155C274.659,258.155 292.794,269.526 302.371,253.041C302.371,253.041 301.663,278.165 276.466,271C276.466,271 252.805,291.96 238.214,264.087ZM274.009,248.436C272.846,249.81 270.818,250.048 269.369,248.98C264.791,245.605 255.192,238.529 249.576,234.389C248.893,233.886 248.592,233.011 248.821,232.193C249.051,231.376 249.762,230.785 250.608,230.71C259.042,229.961 275.395,228.51 284.867,227.669C286.077,227.561 287.232,228.195 287.791,229.274C288.351,230.352 288.204,231.661 287.419,232.589L274.009,248.436ZM176.304,210.327C175.606,211.237 174.427,211.634 173.321,211.333C172.214,211.032 171.4,210.092 171.259,208.954C171.116,207.835 171.042,206.697 171.042,205.545C171.042,188.914 186.635,175.412 205.842,175.412C225.049,175.412 240.643,188.914 240.643,205.545L240.643,205.547C240.642,207.056 239.715,208.409 238.309,208.956C236.902,209.503 235.304,209.13 234.285,208.018C227.605,200.672 217.546,194.823 206.305,194.823C193.874,194.823 182.887,201.853 176.304,210.327ZM279.523,202.334C278.797,203.243 277.589,203.616 276.477,203.272C275.365,202.929 274.577,201.939 274.492,200.779C274.441,200.171 274.415,199.558 274.415,198.939C274.415,184.661 288.058,173.068 304.862,173.068C321.666,173.068 335.309,184.661 335.309,198.939L335.309,198.944C335.308,200.247 334.503,201.413 333.286,201.876C332.069,202.338 330.692,202.001 329.827,201.029C323.981,194.423 315.145,188.753 305.267,188.753C294.702,188.753 285.329,195.096 279.523,202.334Z"/>
</svg>
